<?xml version="1.0" encoding="iso-8859-1"?>
<!-- Generator: Adobe Illustrator 17.1.0, SVG Export Plug-In . SVG Version: 6.00 Build 0)  -->
<!DOCTYPE svg PUBLIC "-//W3C//DTD SVG 1.1//EN" "http://www.w3.org/Graphics/SVG/1.1/DTD/svg11.dtd">
<svg version="1.1" id="Artwork" xmlns="http://www.w3.org/2000/svg" xmlns:xlink="http://www.w3.org/1999/xlink" x="0px" y="0px"
	 width="256px" height="256px" viewBox="0 0 256 256" style="enable-background:new 0 0 256 256;" xml:space="preserve">
<g>
	<path style="fill:#999999;" d="M230.637,73.307h-72.279c-1.864,0-3.375,1.511-3.375,3.375s1.511,3.375,3.375,3.375h4.954
		c-1.705,17.982-16.891,32.096-35.312,32.096c-18.421,0-33.608-14.113-35.312-32.096h46.643c1.864,0,3.375-1.511,3.375-3.375
		s-1.511-3.375-3.375-3.375H25.363c-1.864,0-3.375,1.511-3.375,3.375c0,28.317,11.027,54.938,31.05,74.961
		c20.023,20.023,46.645,31.05,74.962,31.05c28.317,0,54.939-11.027,74.961-31.05c20.023-20.023,31.05-46.645,31.05-74.961
		C234.012,74.818,232.501,73.307,230.637,73.307z M128,175.943c-53.604,0-97.42-42.709-99.205-95.886h57.119
		c1.725,21.709,19.941,38.846,42.086,38.846c22.144,0,40.361-17.137,42.086-38.846h57.119
		C225.42,133.234,181.604,175.943,128,175.943z"/>
	<path style="fill:#999999;" d="M101.16,85.49v7.915c0,1.864,1.511,3.375,3.375,3.375c1.864,0,3.375-1.511,3.375-3.375V85.49
		c0-1.864-1.511-3.375-3.375-3.375C102.671,82.115,101.16,83.626,101.16,85.49z"/>
	<path style="fill:#999999;" d="M113.16,93.486v7.915c0,1.864,1.511,3.375,3.375,3.375c1.864,0,3.375-1.511,3.375-3.375v-7.915
		c0-1.864-1.511-3.375-3.375-3.375C114.671,90.111,113.16,91.623,113.16,93.486z"/>
	<path style="fill:#999999;" d="M125.76,96.89v7.915c0,1.864,1.511,3.375,3.375,3.375c1.864,0,3.375-1.511,3.375-3.375V96.89
		c0-1.864-1.511-3.375-3.375-3.375C127.271,93.515,125.76,95.026,125.76,96.89z"/>
	<path style="fill:#999999;" d="M138.66,93.486v7.915c0,1.864,1.511,3.375,3.375,3.375c1.864,0,3.375-1.511,3.375-3.375v-7.915
		c0-1.864-1.511-3.375-3.375-3.375C140.171,90.111,138.66,91.623,138.66,93.486z"/>
	<path style="fill:#999999;" d="M152.985,96.78c1.864,0,3.375-1.511,3.375-3.375V85.49c0-1.864-1.511-3.375-3.375-3.375
		c-1.864,0-3.375,1.511-3.375,3.375v7.915C149.61,95.269,151.121,96.78,152.985,96.78z"/>
</g>
</svg>
