<?xml version="1.0" encoding="iso-8859-1"?>
<!-- Generator: Adobe Illustrator 17.1.0, SVG Export Plug-In . SVG Version: 6.00 Build 0)  -->
<!DOCTYPE svg PUBLIC "-//W3C//DTD SVG 1.1//EN" "http://www.w3.org/Graphics/SVG/1.1/DTD/svg11.dtd">
<svg version="1.1" id="Artwork" xmlns="http://www.w3.org/2000/svg" xmlns:xlink="http://www.w3.org/1999/xlink" x="0px" y="0px"
	 width="256px" height="256px" viewBox="0 0 256 256" style="enable-background:new 0 0 256 256;" xml:space="preserve">
<g>
	<path style="fill:#999999;" d="M218.096,132.799c0-20.922-9.559-40.558-26.916-55.292c-17.199-14.599-40.032-22.64-64.294-22.64
		c-25.917,0-47.655,4.962-62.864,14.351c-8.379,5.173-14.865,11.7-19.278,19.401c-3.945,6.885-6.239,14.738-6.855,23.393
		c-0.03,0.759,0.439,28.421,0.439,28.421c0,12.012,2.711,19.037,9.85,23.191c6.28,3.654,14.81,4.219,24.687,4.873
		c13.755,0.911,30.873,2.046,48.758,11.961c20.377,11.299,38.185,18.044,52.928,20.045c3.098,0.421,6.046,0.631,8.842,0.631
		c11.803,0,20.631-3.97,27.098-11.171C218.802,180.708,218.096,157.983,218.096,132.799z M67.569,74.961
		c14.142-8.73,34.654-13.344,59.318-13.344c46.571,0,84.459,31.932,84.459,71.183c0,12.036-2.942,21.846-8.508,28.368
		c-5.614,6.578-13.782,9.913-24.281,9.913h-0.004c-13.642-0.001-30.923-5.839-49.974-16.884
		c-18.055-10.466-36.5-12.305-51.321-13.782c-22.74-2.266-32.794-4.09-32.794-23.592C44.465,98.509,52.238,84.425,67.569,74.961z
		 M205.309,185.636c-6.085,7.289-16.127,10.039-29.85,8.178c-13.909-1.888-30.92-8.368-50.563-19.26
		c-19.205-10.647-37.159-11.836-51.585-12.792c-19.206-1.272-28.847-1.911-28.847-21.833v-2.5c7.105,7.208,19.056,8.4,32.124,9.703
		c14.912,1.486,31.813,3.171,48.605,12.904c20.365,11.807,38.317,17.794,53.359,17.795h0.002c12.389,0,22.562-4.247,29.417-12.281
		c1.154-1.352,2.203-2.804,3.161-4.34C210.734,175.6,209.449,180.677,205.309,185.636z"/>
	<path style="fill:#999999;" d="M95.637,117.409c11.604,0,21.045-7.648,21.045-17.049c0-9.399-9.441-17.046-21.045-17.046
		c-11.601,0-21.04,7.647-21.04,17.046C74.597,109.761,84.036,117.409,95.637,117.409z M95.637,90.064
		c7.882,0,14.295,4.62,14.295,10.296c0,5.679-6.412,10.299-14.295,10.299c-7.746,0-14.29-4.716-14.29-10.299
		C81.347,94.779,87.891,90.064,95.637,90.064z"/>
</g>
</svg>
