<?xml version="1.0" encoding="iso-8859-1"?>
<!-- Generator: Adobe Illustrator 17.1.0, SVG Export Plug-In . SVG Version: 6.00 Build 0)  -->
<!DOCTYPE svg PUBLIC "-//W3C//DTD SVG 1.1//EN" "http://www.w3.org/Graphics/SVG/1.1/DTD/svg11.dtd">
<svg version="1.1" id="Artwork" xmlns="http://www.w3.org/2000/svg" xmlns:xlink="http://www.w3.org/1999/xlink" x="0px" y="0px"
	 width="256px" height="256px" viewBox="0 0 256 256" style="enable-background:new 0 0 256 256;" xml:space="preserve">
<g>
	<path style="fill:#999999;" d="M128.49,127.083v-4.871c0-1.864-1.511-3.375-3.375-3.375c-1.864,0-3.375,1.511-3.375,3.375v4.871
		c0,1.864,1.511,3.375,3.375,3.375C126.979,130.458,128.49,128.947,128.49,127.083z"/>
	<path style="fill:#999999;" d="M131.803,152.993c-1.864,0-3.375,1.51-3.375,3.375v4.87c0,1.864,1.511,3.375,3.375,3.375
		c1.864,0,3.375-1.511,3.375-3.375v-4.87C135.178,154.503,133.667,152.993,131.803,152.993z"/>
	<path style="fill:#999999;" d="M99.259,139.266c-1.864,0-3.375,1.511-3.375,3.375v4.871c0,1.864,1.511,3.375,3.375,3.375
		s3.375-1.511,3.375-3.375v-4.871C102.634,140.777,101.123,139.266,99.259,139.266z"/>
	<path style="fill:#999999;" d="M106.387,169.419c-1.864,0-3.375,1.511-3.375,3.375v4.87c0,1.864,1.511,3.375,3.375,3.375
		s3.375-1.511,3.375-3.375v-4.87C109.762,170.93,108.251,169.419,106.387,169.419z"/>
	<path style="fill:#999999;" d="M159.698,164.548c-1.864,0-3.375,1.511-3.375,3.375v4.871c0,1.864,1.511,3.375,3.375,3.375
		c1.864,0,3.375-1.511,3.375-3.375v-4.871C163.073,166.059,161.562,164.548,159.698,164.548z"/>
	<path style="fill:#999999;" d="M129.633,189.211c-1.864,0-3.375,1.511-3.375,3.375v4.871c0,1.864,1.511,3.375,3.375,3.375
		c1.864,0,3.375-1.511,3.375-3.375v-4.871C133.008,190.722,131.497,189.211,129.633,189.211z"/>
	<path style="fill:#999999;" d="M159.044,143.792v-4.87c0-1.864-1.511-3.375-3.375-3.375c-1.864,0-3.375,1.511-3.375,3.375v4.87
		c0,1.864,1.511,3.375,3.375,3.375C157.533,147.167,159.044,145.656,159.044,143.792z"/>
	<path style="fill:#999999;" d="M175.505,113.967c-1.864,0-3.375,1.511-3.375,3.375v4.87c0,1.864,1.511,3.375,3.375,3.375
		c1.864,0,3.375-1.511,3.375-3.375v-4.87C178.88,115.478,177.369,113.967,175.505,113.967z"/>
	<path style="fill:#999999;" d="M76.942,113.967c-1.864,0-3.375,1.511-3.375,3.375v4.87c0,1.864,1.511,3.375,3.375,3.375
		s3.375-1.511,3.375-3.375v-4.87C80.317,115.478,78.806,113.967,76.942,113.967z"/>
	<path style="fill:#999999;" d="M192.646,97.571c-5.449-10.834-13.596-13.71-21.001-14.609c3.009-1.561,5.549-3.657,6.402-6.438
		c1.167-3.801-4.148-5.868-6.983-7.026c-2.83-1.156-6.778-2.464-11.735-3.889c-8.33-2.394-16.842-4.345-16.927-4.365
		c-1.261-0.287-2.576,0.171-3.385,1.179c-2.16,2.694-5.326,6.2-7.502,8.488c0.068-1.796-0.142-4.399-0.15-6.3
		c0.063-9.792,0.953-19.156,4.517-23.042c1.214-1.324,2.554-1.868,4.33-1.756c1.866,0.108,3.461-1.302,3.575-3.163
		c0.114-1.86-1.302-3.461-3.162-3.575c-3.785-0.23-7.145,1.128-9.717,3.932c-5.19,5.658-6.637,16.908-6.711,27.267h-0.001
		c0,0.041,0,0.085,0,0.127c0,0.07-0.002,0.141-0.002,0.211h0.002c-0.003,1.838,0.031,4.025,0.096,5.717
		c-2.176-2.289-4.718-5.212-6.878-7.906c-0.809-1.009-2.124-1.467-3.385-1.179c-0.085,0.019-8.597,1.971-16.927,4.365
		c-4.957,1.425-8.905,2.733-11.735,3.889c-2.835,1.157-8.091,3.207-6.983,7.026c0.75,2.587,3.891,4.68,7.518,6.275
		c-7.794,0.697-16.714,3.18-22.544,14.772c-6.16,12.248-7.511,36.213,7.171,66.745c10.744,22.344,20.511,37.707,33.712,48.614
		c0.02,0.017,0.041,0.034,0.062,0.05c8.616,6.785,16.075,9.968,23.392,9.968c0.103,0,0.206-0.004,0.308-0.005
		c0.103,0.001,0.205,0.005,0.308,0.005c7.317,0,14.777-3.184,23.392-9.968c0.021-0.016,0.041-0.033,0.062-0.05
		c13.201-10.907,22.968-26.271,33.712-48.614C200.156,133.784,198.805,109.819,192.646,97.571z M113.485,68.299
		c5.828,7.109,9.308,10.231,11.467,11.603c0.069,0.697,0.704,5.802,0.786,6.359c0.249,1.676,1.689,2.88,3.334,2.88
		c0.165,0,0.332-0.012,0.5-0.037c1.844-0.274,3.117-1.991,2.843-3.834c-0.16-1.077-0.654-4.906-0.585-5.6
		c2.159-1.372,5.285-4.262,11.113-11.37c10.07,2.377,21.033,5.497,26.188,7.669c-4.077,1.629-11.793,3.637-18.507,4.929
		c-1.053,0.203-1.948,0.894-2.409,1.862c-0.461,0.969-0.435,2.098,0.071,3.044c5.622,10.508,11.514,22.937,13.587,29.212
		c-4.927-2.942-13.409-9.348-18.504-13.196c-11.251-8.497-12.92-9.571-14.885-9.571c-0.089,0-0.45,0-0.539,0
		c-1.965,0-3.634,1.074-14.885,9.571c-5.095,3.848-13.577,10.254-18.504,13.196c2.073-6.275,7.965-18.704,13.587-29.212
		c0.506-0.946,0.532-2.075,0.071-3.044c-0.461-0.969-1.356-1.659-2.409-1.862c-6.714-1.292-14.43-3.3-18.507-4.929
		C92.452,73.796,103.415,70.676,113.485,68.299z M179.391,161.391c-10.279,21.377-19.523,35.627-31.897,45.86
		c-7.341,5.775-13.451,8.933-19.169,8.939c-0.015,0-0.03-0.001-0.045-0.001c-0.097,0.003-0.195-0.001-0.292,0
		c-0.089-0.001-0.178,0.002-0.267,0c-0.023-0.001-0.045,0.001-0.068,0.001c-5.708-0.014-11.816-3.172-19.146-8.939
		c-12.374-10.233-21.618-24.483-31.897-45.86c-13.636-28.357-12.414-50.469-7.224-60.787c5.398-10.734,13.83-11.047,21.984-11.349
		l0.343-0.013c0.555-0.02,2.464-0.073,5.295-0.147c0.55-0.015,1.063-0.162,1.516-0.407c-1.194,3.143-3.053,7.119-4.738,10.72
		c-2.357,5.037-4.114,9.2-5.224,12.375c-1.679,4.802-2.297,8.201-0.197,10.301c0.556,0.556,1.541,1.218,3.077,1.218h0.002
		c3.943-0.001,11.199-5.156,25.684-16.096c3.93-2.968,8.681-6.556,10.807-7.878c0.209-0.108,0.392-0.108,0.559,0
		c2.126,1.322,6.877,4.91,10.807,7.878c14.485,10.941,21.741,16.095,25.684,16.096h0.002c1.537,0,2.522-0.662,3.077-1.218
		c2.101-2.1,1.482-5.498-0.197-10.301c-1.11-3.175-2.867-7.338-5.224-12.375c-1.701-3.637-3.272-7.359-4.349-10.405
		c0.225,0.054,0.459,0.086,0.7,0.092c2.831,0.074,4.74,0.127,5.288,0.147l0.35,0.013c8.154,0.303,16.586,0.616,21.984,11.349
		C191.805,110.922,193.027,133.034,179.391,161.391z"/>
</g>
</svg>
