<?xml version="1.0" encoding="iso-8859-1"?>
<!-- Generator: Adobe Illustrator 17.1.0, SVG Export Plug-In . SVG Version: 6.00 Build 0)  -->
<!DOCTYPE svg PUBLIC "-//W3C//DTD SVG 1.1//EN" "http://www.w3.org/Graphics/SVG/1.1/DTD/svg11.dtd">
<svg version="1.1" id="Artwork" xmlns="http://www.w3.org/2000/svg" xmlns:xlink="http://www.w3.org/1999/xlink" x="0px" y="0px"
	 width="256px" height="256px" viewBox="0 0 256 256" style="enable-background:new 0 0 256 256;" xml:space="preserve">
<g>
	<path style="fill:#999999;" d="M223.797,72.923c-1.636-1.159-38.396-27.782-94.427-29.195c-2.649-0.067-7.722,0.07-7.722,0.07
		c-7.019,0.23-14.139,0.927-21.161,2.072C59.832,52.501,32.98,72.348,31.856,73.191c-3.525,2.644-5.812,6.502-6.44,10.865
		c-0.629,4.37,0.482,8.717,3.125,12.236c3.099,4.141,8.037,6.614,13.208,6.614c1.981,0,3.932-0.361,5.771-1.052l11.825,18.529
		c0.642,1.005,1.776,1.599,2.958,1.557c1.192-0.04,2.275-0.706,2.847-1.753c4.703-8.595,13.703-13.934,23.488-13.934
		c14.757,0,26.763,12.006,26.763,26.763c0,6.305-4.729,23.116-26.319,25.164c-1.856,0.176-3.217,1.823-3.041,3.678
		c0.053,0.556,0.239,1.067,0.521,1.506l0,0l26.736,41.572c0.012,0.02,0.025,0.04,0.039,0.059c3,4.458,7.995,7.183,13.363,7.29
		c0.022,0,0.045,0.001,0.067,0.001l0.261,0.003c5.238,0,10.215-2.526,13.312-6.758c0.017-0.023,0.034-0.047,0.05-0.07
		l71.285-102.782c0.851,0.135,1.714,0.203,2.582,0.203h0c5.35,0,10.387-2.604,13.473-6.966
		C232.985,88.492,231.22,78.176,223.797,72.923z M134.869,201.578c-1.833,2.482-4.761,3.963-7.842,3.963l-0.198-0.002
		c-3.159-0.065-6.1-1.665-7.875-4.283l-23.904-37.17c10.813-2.312,17.133-8.013,20.64-12.721c4.764-6.395,6.461-13.671,6.461-18.348
		c0-18.479-15.034-33.513-33.513-33.513c-10.408,0-20.105,4.822-26.398,12.869l-8.893-13.935
		c7.191-4.702,35.859-21.735,73.627-21.735c21.328,0,57.677,11.944,78.357,23.281L134.869,201.578z M222.221,92.019
		c-1.823,2.577-4.8,4.115-7.963,4.115c-0.922,0-1.831-0.13-2.71-0.385l-0.002-0.001c-9.935-5.834-24.877-12.219-40.083-17.121
		c-17.352-5.594-33.152-8.675-44.489-8.675c-46.045,0-79.059,24.001-79.409,24.259c-0.215,0.162-3.99,1.944-5.816,1.944
		c-3.101,0-5.945-1.424-7.808-3.913c-1.561-2.078-2.217-4.644-1.845-7.224c0.372-2.581,1.724-4.864,3.808-6.427
		c1.069-0.801,26.63-19.692,65.668-26.06c6.737-1.098,13.565-1.767,20.269-1.987c0,0,6.663-0.08,7.429-0.068
		c51.666,0.762,89.056,26.844,90.625,27.954C224.282,81.536,225.325,87.631,222.221,92.019z"/>
	<path style="fill:#999999;" d="M155.677,86.322c-13.95,0-25.298,11.349-25.298,25.298s11.349,25.298,25.298,25.298
		c13.95,0,25.298-11.349,25.298-25.298S169.627,86.322,155.677,86.322z M155.677,130.169c-10.228,0-18.548-8.321-18.548-18.548
		s8.321-18.548,18.548-18.548c10.228,0,18.548,8.321,18.548,18.548S165.905,130.169,155.677,130.169z"/>
	<path style="fill:#999999;" d="M138.123,140.858c-9.3,0-16.866,7.566-16.866,16.866c0,9.3,7.566,16.866,16.866,16.866
		c9.3,0,16.866-7.566,16.866-16.866C154.989,148.424,147.423,140.858,138.123,140.858z M138.123,167.84
		c-5.578,0-10.116-4.538-10.116-10.116c0-5.578,4.538-10.116,10.116-10.116s10.116,4.538,10.116,10.116
		C148.239,163.302,143.701,167.84,138.123,167.84z"/>
</g>
</svg>
