<?xml version="1.0" encoding="iso-8859-1"?>
<!-- Generator: Adobe Illustrator 17.1.0, SVG Export Plug-In . SVG Version: 6.00 Build 0)  -->
<!DOCTYPE svg PUBLIC "-//W3C//DTD SVG 1.1//EN" "http://www.w3.org/Graphics/SVG/1.1/DTD/svg11.dtd">
<svg version="1.1" id="Artwork" xmlns="http://www.w3.org/2000/svg" xmlns:xlink="http://www.w3.org/1999/xlink" x="0px" y="0px"
	 width="256px" height="256px" viewBox="0 0 256 256" style="enable-background:new 0 0 256 256;" xml:space="preserve">
<g>
	<path style="fill:#999999;" d="M201.246,107.665c-4.901,0-8.887,3.987-8.887,8.887c0,4.901,3.987,8.888,8.887,8.888
		s8.888-3.987,8.888-8.888C210.134,111.652,206.147,107.665,201.246,107.665z M201.246,118.69c-1.179,0-2.137-0.959-2.137-2.138
		c0-1.179,0.959-2.137,2.137-2.137c1.179,0,2.138,0.959,2.138,2.137C203.384,117.731,202.425,118.69,201.246,118.69z"/>
	<path style="fill:#999999;" d="M234.689,122.664c0.997-1.633,1.445-3.555,1.244-5.463c-0.247-2.328-1.384-4.421-3.202-5.892
		c-1.576-1.275-3.5-1.952-5.472-1.952c-5.94-8.406-21.897-16.83-36.423-18.964c-0.101-0.022-0.202-0.041-0.306-0.057
		c-0.057-0.009-0.116-0.007-0.174-0.013c-3.416-0.584-6.996-1-10.661-1.256c-4.69-5.992-10.687-9.933-17.85-11.721
		c-5.904-1.474-19.023-0.099-29.405,1.918c-14.807,2.876-23.352,6.425-25.398,10.548c-0.939,1.892-0.951,4.71,1.83,6.944
		c0.643,0.517,1.261,1.003,1.849,1.466c1.367,1.076,2.691,2.118,3.613,3.018c-19.079,8.469-34.995,19.417-44.079,26.291
		c-7.184-6.037-22.047-13.95-38.862-14.35c-0.027,0-0.053-0.001-0.08-0.001c-5.191,0-8.402,0.977-10.105,3.074
		c-1.029,1.267-1.408,2.859-1.068,4.477c0.964,4.651,6.48,13.117,14.416,17.432c-7.665,6.082-9.243,15.068-9.414,20.573
		c-0.064,2.073,0.753,3.365,1.451,4.084c1.042,1.074,2.479,1.619,4.271,1.619c1.472,0,2.969-0.358,4.289-0.674
		c0.248-0.059,0.488-0.117,0.717-0.169c17.384-3.938,30.443-12.883,36.402-20.441c8.43,3.717,35.897,15.081,63.361,18.337
		c-0.969,0.302-1.862,0.64-2.664,1.063c-3.831,2.021-3.953,5.144-3.684,6.828c0.904,5.639,7.782,9.891,16.001,9.891
		c2.833,0,5.574-0.5,8.147-1.485c8.138-3.119,14.865-9.391,17.97-16.63c9.682-1.527,18.679-3.966,26.754-7.285l0.003-0.001
		c0.001-0.001,0.003-0.001,0.003-0.001c0.071-0.029,0.137-0.059,0.206-0.088c6.251-2.425,12.38-6.293,13.556-7.052
		c0.02-0.012,0.039-0.025,0.058-0.037c1.936-1.264,3.745-2.575,5.377-3.894c0.032-0.026,0.065-0.053,0.096-0.081
		c3.117-2.535,5.742-5.211,7.824-7.974c0.728,0.109,1.471,0.127,2.21,0.051c4.798-0.506,8.296-4.822,7.794-9.645
		C235.207,124.452,235.062,123.565,234.689,122.664z M134.28,85.782c11.012-2.096,21.917-2.89,25.931-1.889
		c3.656,0.913,6.935,2.551,9.811,4.882c-6.121,0.051-12.444,0.52-18.899,1.424c-9.586,1.34-19.757,4.132-30.276,8.301
		c-1.349-1.96-3.49-3.65-5.951-5.586c-0.327-0.257-0.663-0.522-1.008-0.795C116.156,90.566,122.643,87.997,134.28,85.782z
		 M34.379,157.011c-0.255,0.058-0.522,0.122-0.797,0.188c-0.509,0.122-1.088,0.26-1.617,0.359c0.481-6.15,3.07-13.613,12.034-17.036
		c1.454-0.555,2.339-2.032,2.145-3.576c-0.195-1.544-1.42-2.754-2.966-2.931c-7.745-0.884-14.501-9.31-16.131-13.665
		c0.698-0.195,1.988-0.421,4.227-0.423c13.512,0.333,26.698,6.593,33.545,11.876c-1.315,1.399-2.154,3.264-1.486,5.321
		c0.44,1.352,1.462,2.361,2.584,3.099C60.803,145.915,49.963,153.481,34.379,157.011z M151.019,171.485
		c-1.799,0.689-3.728,1.038-5.733,1.038c-5.084,0-8.661-2.2-9.267-3.957c0.922-0.537,3.394-1.128,5.091-1.533
		c3.535-0.845,7.933-1.896,11.773-4.287c4.016-2.499,6.38-5.894,8.279-8.622c1.806-2.593,2.99-4.199,4.506-4.517
		c0.374-0.079,0.542-0.063,0.615-0.053c0.416,0.523,0.817,3.049-0.342,6.897c-0.22,0.379-0.366,0.801-0.425,1.246
		C163.743,162.429,159.078,168.396,151.019,171.485z M173.313,153.998c0.321-2.785,0.156-5.996-1.548-8.378
		c-1.641-2.295-4.368-3.272-7.481-2.62c-4.216,0.884-6.476,4.128-8.661,7.266c-1.296,1.862-2.629,3.769-4.437,5.353
		c-0.071-0.003-0.141-0.008-0.212-0.006c-35.482,0.48-78.781-19.922-78.791-19.927c-0.265-0.164-0.828-0.613-0.051-1.092l0,0
		c8.724-6.784,26.577-19.515,48.139-28.572c11.116-4.669,21.81-7.743,31.786-9.137c8.91-1.249,17.548-1.65,25.674-1.191
		c1.746,0.098,3.473,0.237,5.171,0.414c-5.429,6.108-9.791,13.832-8.584,25.244c1.275,12.074,6.616,22.162,14.954,28.619
		C184.261,151.639,178.921,152.983,173.313,153.998z M228.704,119.449c-2.015,2.265-1.397,4.543-0.235,5.848
		c0.025,0.083,0.068,0.258,0.103,0.574c0.115,1.103-0.688,2.095-1.782,2.21c-0.337,0.034-0.667-0.014-1.005-0.156
		c-1.896-0.776-3.94-0.152-5.01,1.515c-1.857,2.757-4.409,5.464-7.586,8.046c-0.05,0.039-0.099,0.08-0.148,0.123
		c-1.434,1.155-3.03,2.308-4.743,3.428c-0.012,0.007-0.022,0.014-0.028,0.018c-0.942,0.608-5.318,3.372-10.151,5.52
		c-0.134,0.04-0.267,0.085-0.398,0.143c-0.229,0.1-0.467,0.198-0.697,0.298c-8.939-4.984-14.739-14.503-15.993-26.374
		c-1.155-10.911,3.965-17.403,10.113-23.365c14.037,2.432,27.914,10.814,31.232,16.977c0.473,0.904,1.695,2.351,4.537,1.883
		l0.099-0.016c0.536-0.057,1.056,0.098,1.472,0.435c0.418,0.338,0.679,0.82,0.736,1.353
		C229.299,118.655,228.93,119.195,228.704,119.449z"/>
</g>
</svg>
