<?xml version="1.0" encoding="utf-8"?>
<!-- Generator: Adobe Illustrator 16.0.0, SVG Export Plug-In . SVG Version: 6.00 Build 0)  -->
<!DOCTYPE svg PUBLIC "-//W3C//DTD SVG 1.1//EN" "http://www.w3.org/Graphics/SVG/1.1/DTD/svg11.dtd">
<svg version="1.1" id="Layer_1" xmlns="http://www.w3.org/2000/svg" xmlns:xlink="http://www.w3.org/1999/xlink" x="0px" y="0px"
	 width="960px" height="560px" viewBox="0 0 960 560" enable-background="new 0 0 960 560" xml:space="preserve">
<line opacity="0.05" fill="none" stroke="#666666" stroke-width="2" stroke-miterlimit="10" x1="649" y1="429" x2="38" y2="429"/>
<line opacity="0.05" fill="none" stroke="#666666" stroke-width="2" stroke-miterlimit="10" x1="648" y1="372" x2="38" y2="372"/>
<line opacity="0.05" fill="none" stroke="#666666" stroke-width="2" stroke-miterlimit="10" x1="649" y1="312" x2="35" y2="312"/>
<line opacity="0.05" fill="none" stroke="#666666" stroke-width="2" stroke-miterlimit="10" x1="649" y1="251" x2="35" y2="251"/>
<line opacity="0.05" fill="none" stroke="#666666" stroke-width="2" stroke-miterlimit="10" x1="649" y1="189" x2="35" y2="189"/>
<line opacity="0.05" fill="none" stroke="#666666" stroke-width="2" stroke-miterlimit="10" x1="157" y1="128" x2="157" y2="455"/>
<line opacity="0.05" fill="none" stroke="#666666" stroke-width="2" stroke-miterlimit="10" x1="266" y1="128" x2="266" y2="455"/>
<line opacity="0.05" fill="none" stroke="#666666" stroke-width="2" stroke-miterlimit="10" x1="372" y1="128" x2="372" y2="455"/>
<line opacity="0.05" fill="none" stroke="#666666" stroke-width="2" stroke-miterlimit="10" x1="533" y1="128" x2="533" y2="455"/>
<line opacity="0.05" fill="none" stroke="#666666" stroke-width="2" stroke-miterlimit="10" x1="590" y1="128" x2="590" y2="455"/>
<line opacity="0.05" fill="none" stroke="#666666" stroke-width="2" stroke-miterlimit="10" x1="107" y1="128" x2="107" y2="455"/>
<line opacity="0.05" fill="none" stroke="#666666" stroke-width="2" stroke-miterlimit="10" x1="55" y1="128" x2="55" y2="455"/>
<line opacity="0.05" fill="none" stroke="#666666" stroke-width="2" stroke-miterlimit="10" x1="213" y1="128" x2="213" y2="455"/>
<line opacity="0.05" fill="none" stroke="#666666" stroke-width="2" stroke-miterlimit="10" x1="318" y1="128" x2="318" y2="455"/>
<line opacity="0.05" fill="none" stroke="#666666" stroke-width="2" stroke-miterlimit="10" x1="427" y1="128" x2="427" y2="455"/>
<line opacity="0.05" fill="none" stroke="#666666" stroke-width="2" stroke-miterlimit="10" x1="481" y1="128" x2="481" y2="455"/>
<line opacity="0.05" fill="none" stroke="#666666" stroke-width="2" stroke-miterlimit="10" x1="642" y1="128" x2="642" y2="455"/>
<rect x="42.182" y="460.175" fill="none" width="22.535" height="9.402"/>
<text transform="matrix(1 0 0 1 42.1816 467.7939)" opacity="0.5" font-family="'DINAlternate-Bold'" font-size="10.7">1920</text>
<rect x="144.886" y="460.175" fill="none" width="22.535" height="9.402"/>
<text transform="matrix(1 0 0 1 144.8857 467.7939)" opacity="0.5" font-family="'DINAlternate-Bold'" font-size="10.7">1940</text>
<rect x="254.805" y="460.175" fill="none" width="22.535" height="9.402"/>
<text transform="matrix(1 0 0 1 254.8047 467.7939)" opacity="0.5" font-family="'DINAlternate-Bold'" font-size="10.7">1960</text>
<rect x="360.831" y="460.175" fill="none" width="22.536" height="9.402"/>
<text transform="matrix(1 0 0 1 360.8311 467.7939)" opacity="0.5" font-family="'DINAlternate-Bold'" font-size="10.7">1980</text>
<rect x="471.156" y="460.175" fill="none" width="22.534" height="9.402"/>
<text transform="matrix(1 0 0 1 471.1562 467.7939)" opacity="0.5" font-family="'DINAlternate-Bold'" font-size="10.7">2000</text>
<rect x="577.753" y="460.175" fill="none" width="22.534" height="9.402"/>
<text transform="matrix(1 0 0 1 577.7529 467.7939)" opacity="0.5" font-family="'DINAlternate-Bold'" font-size="10.7">2020</text>
<polyline opacity="0.3" fill="#CCCCCC" points="645,432 62.219,432 61.742,429.742 102.649,388.72 154.408,378.664 212.25,347.785 
	265.322,262.864 318.392,250.913 370.986,202.848 426.324,181.671 481.302,193.865 535.209,187.944 534.602,189.991 589.592,174 
	588.878,174 639,185.702 639,186.173 639,425 "/>
<line opacity="0.6" fill="none" x1="644.951" y1="381.936" x2="644.951" y2="381.936"/>
<line opacity="0.6" fill="none" stroke="#ED1C24" stroke-width="2" stroke-miterlimit="10" x1="639" y1="313" x2="849" y2="313"/>
<line opacity="0.6" fill="none" stroke="#00A99D" stroke-width="2" stroke-miterlimit="10" x1="639" y1="336" x2="849" y2="336"/>
<line opacity="0.6" fill="none" stroke="#FBB03B" stroke-width="2" stroke-miterlimit="10" x1="639" y1="429" x2="849" y2="429"/>
<line opacity="0.6" fill="none" stroke="#999999" stroke-width="2" stroke-miterlimit="10" x1="639" y1="185" x2="849" y2="185"/>
<polyline opacity="0.6" fill="#C1272D" points="641,432 54.99,432 109.746,409.072 161.927,403.164 203.478,395.22 263.391,386.414 
	318.427,380.608 377.092,365.072 431.206,359.581 489.106,342.713 541.742,346.837 640.305,311.799 "/>
<polyline opacity="0.6" fill="#22B573" points="639,429 639,336.797 586.902,343.944 554.425,345.687 484.269,353.47 
	429.418,342.512 321.796,364.427 273.226,388.251 220.832,395.873 169.384,394.285 114.122,396.023 57.908,430 641,430 "/>
<polyline opacity="0.6" fill="#FBB03B" points="638,430 638,337.773 587.324,353.338 533.535,334.532 480.376,361.77 
	322.803,392.573 270.928,374.739 220.023,402.301 113.673,410.73 56.764,430.133 56.935,430 639,430 "/>
<rect x="22.892" y="423.536" fill="none" width="10.94" height="9.402"/>
<text transform="matrix(1 0 0 1 22.8916 431.1543)" opacity="0.5" font-family="'DINAlternate-Bold'" font-size="10.7">10</text>
<line opacity="0.05" fill="none" stroke="#666666" stroke-width="2" stroke-miterlimit="10" x1="649" y1="128" x2="35" y2="128"/>
<rect x="22.892" y="369.387" fill="none" width="10.94" height="9.402"/>
<text transform="matrix(1 0 0 1 22.8916 377.0049)" opacity="0.5" font-family="'DINAlternate-Bold'" font-size="10.7">20</text>
<rect x="22.892" y="308.104" fill="none" width="10.94" height="9.402"/>
<text transform="matrix(1 0 0 1 22.8916 315.7227)" opacity="0.5" font-family="'DINAlternate-Bold'" font-size="10.7">30</text>
<rect x="22.892" y="246.498" fill="none" width="10.94" height="9.402"/>
<text transform="matrix(1 0 0 1 22.8916 254.1162)" opacity="0.5" font-family="'DINAlternate-Bold'" font-size="10.7">40</text>
<rect x="22.892" y="184.243" fill="none" width="10.94" height="9.402"/>
<text transform="matrix(1 0 0 1 22.8916 191.8613)" opacity="0.5" font-family="'DINAlternate-Bold'" font-size="10.7">50</text>
<rect x="22.766" y="124.581" fill="none" width="10.94" height="9.402"/>
<text transform="matrix(1 0 0 1 22.7646 132.1992)" opacity="0.5" font-family="'DINAlternate-Bold'" font-size="10.7">60</text>
<line opacity="0.6" fill="none" stroke="#ED1C24" stroke-width="3" stroke-miterlimit="10" x1="572.5" y1="80" x2="572.5" y2="480"/>
<rect x="862.68" y="181.002" fill="none" width="22.534" height="9.402"/>
<text transform="matrix(1 0 0 1 862.6797 188.6201)" opacity="0.5" font-family="'DINAlternate-Bold'" font-size="10.7">ALL</text>
<rect x="862.68" y="309.402" fill="none" width="27.885" height="9.402"/>
<text transform="matrix(1 0 0 1 862.6797 317.0205)" opacity="0.5" fill="#ED1C24" font-family="'DINAlternate-Bold'" font-size="10.7">BEEF</text>
<rect x="862.68" y="332.747" fill="none" width="59.498" height="9.402"/>
<text transform="matrix(1 0 0 1 862.6797 340.3643)" opacity="0.5" fill="#22B573" font-family="'DINAlternate-Bold'" font-size="10.7">POULTRY</text>
<rect x="862.68" y="427.103" fill="none" width="41.504" height="9.402"/>
<text transform="matrix(1 0 0 1 862.6797 434.7207)" opacity="0.5" fill="#FBB03B" font-family="'DINAlternate-Bold'" font-size="10.7">PORK</text>
</svg>
