<?xml version="1.0" encoding="utf-8"?>
<!-- Generator: Adobe Illustrator 16.0.0, SVG Export Plug-In . SVG Version: 6.00 Build 0)  -->
<!DOCTYPE svg PUBLIC "-//W3C//DTD SVG 1.1//EN" "http://www.w3.org/Graphics/SVG/1.1/DTD/svg11.dtd">
<svg version="1.1" id="Layer_1" xmlns="http://www.w3.org/2000/svg" xmlns:xlink="http://www.w3.org/1999/xlink" x="0px" y="0px"
	 width="960px" height="560px" viewBox="0 0 960 560" enable-background="new 0 0 960 560" xml:space="preserve">
<g>
	<defs>
		<rect id="SVGID_1_" width="960" height="560"/>
	</defs>
	<clipPath id="SVGID_2_">
		<use xlink:href="#SVGID_1_"  overflow="visible"/>
	</clipPath>
	<path clip-path="url(#SVGID_2_)" fill="#54FA97" d="M613.265,333.562c-1.4-27.988-3.449-55.715-10.008-82.829
		c-16.018-66.222-77.857-107.754-145.232-98.042c-62.861,9.062-112.41,71.035-107.254,134.348c0.658,8.094,2.649,16.086,3.173,24.18
		c0.782,12.078,0.894,24.203,1.11,36.312c0.088,4.914,2.245,8.145,6.394,8.629c4.124,0.481,7.172-2.178,8.046-7.033
		c0.116-0.656,0.287-1.322,0.265-1.979c-0.397-12.623,0.243-25.396-1.497-37.835c-2.337-16.702-4.914-33.205-2.055-50.067
		c8.521-50.271,49.194-87.714,101.522-93.366c50.364-5.441,98.261,23.685,116.364,71.347c9.075,23.894,11.169,49.197,12.866,74.445
		c1.852,27.527,0.031,54.91-4.104,82.164c-0.872,5.744,1.232,9.23,5.646,9.869c4.679,0.676,7.901-2.1,8.535-8.101
		C609.217,374.934,611.204,354.244,613.265,333.562 M469.8,90.726c-40.025,0.616-82.341,16.77-118.034,49.36
		c-30.834,28.152-50.311,62.919-58.541,103.904c-1.287,6.408,0.524,10.14,5.159,11.176c4.584,1.024,7.608-1.745,8.981-8.217
		c0.103-0.488,0.27-0.963,0.37-1.452C326.413,154.101,409.36,94.386,501.781,106.64c56.069,7.434,98.387,36.475,127.354,84.977
		c13.64,22.838,19.79,48.119,23.769,74.078c0.923,6.019,3.812,8.771,8.53,8.125c4.474-0.613,6.677-4.037,5.663-9.824
		c-1.859-10.627-3.474-21.342-6.161-31.771C639.645,149.618,563.179,90.557,469.8,90.726 M521.428,329.93
		c-0.411-7.315-0.513-17.51-1.675-27.584c-1.328-11.52-2.535-23.234-5.699-34.321c-5.334-18.689-26.285-29.92-44.677-25.29
		c-18.341,4.616-30.91,24.4-27.828,43.438c1.7,10.492,3.511,21.006,4.371,31.584c1.741,21.371-0.005,42.584-4.417,63.578
		c-0.961,4.576,1.386,8.365,5.422,9.229c3.828,0.815,7.298-1.511,8.578-5.785c0.238-0.793,0.351-1.625,0.521-2.438
		c7.131-33.928,5.934-67.832-0.204-101.737c-2.007-11.086,5.155-21.064,16.911-23.858c12.584-2.99,24.976,2.719,27.013,14.028
		c3.146,17.471,6.305,35.153,6.913,52.833c2.4,69.797-18.292,132.522-60.274,188.274c-0.801,1.064-1.683,2.086-2.344,3.23
		c-2.12,3.674-1.794,7.162,1.641,9.76c3.457,2.611,6.878,1.922,9.81-1.166c0.799-0.842,1.463-1.812,2.164-2.744
		C499.568,465.234,520.634,402.461,521.428,329.93 M273.008,278.045c1.478-40.088,11.767-77.244,33.99-110.527
		c36.927-55.304,89.146-85.596,155.138-91.679c13.975-1.289,28.23,0.309,42.348,0.802c5.696,0.199,9.428-2.25,9.508-6.979
		c0.074-4.358-2.658-6.928-8.73-7.635c-20.298-2.363-40.598-2.251-60.766,1.107c-53.732,8.947-98.496,34.115-133.198,76.07
		c-38.104,46.07-55.232,99.231-50.466,159.051c0.789,9.918,2.998,19.713,4.101,29.615c1.717,15.424-3.012,28.887-13.185,40.545
		c-3.657,4.188-3.554,8.52,0.005,11.354c3.47,2.763,7.342,2.199,10.891-2.002c13.921-16.479,19.044-35.448,16.025-56.772
		C276.645,306.699,274.884,292.363,273.008,278.045 M702.96,341.762c-0.755-44.775-3.122-81.352-12.848-116.859
		c-20.243-73.902-67.004-124.108-138.246-151.777c-2.475-0.961-5.006-1.917-7.601-2.386c-3.931-0.71-7.014,0.877-8.157,4.817
		c-1.106,3.803,0.216,6.924,3.904,8.715c1.336,0.648,2.816,0.997,4.23,1.487c36.907,12.78,68.092,33.887,92.753,64.271
		c22.034,27.146,35.646,58.031,42.284,92.461c6.433,33.362,9.614,66.876,8.686,100.761c-0.434,15.791-2.049,31.553-3.122,47.328
		c-0.381,5.6,1.658,8.711,6.005,9.213c4.636,0.533,7.736-2.188,8.2-7.822C700.646,372.566,702.082,353.148,702.96,341.762
		 M476.874,181.401c-43.164,1.053-79.59,29.148-92.116,70.612c-5.604,18.553-3.707,36.889-0.838,55.708
		c7.836,51.394-5.588,97.285-38.768,137.254c-5.717,6.89-12.714,12.701-18.688,19.396c-1.719,1.928-3.026,5.457-2.492,7.787
		c0.479,2.094,3.611,4.703,5.821,4.963c2.308,0.27,5.404-1.465,7.314-3.23c43.271-40.03,64.677-89.526,62.929-148.518
		c-0.396-13.363-3.562-26.623-4.839-39.988c-3.282-34.401,15.636-67.032,46.993-81.593c13.061-6.064,26.801-8.765,41.22-8.081
		c5.729,0.271,9.087-2.215,9.417-6.564c0.34-4.469-2.961-7.368-8.966-7.725C481.539,181.286,479.202,181.401,476.874,181.401
		 M581.846,332.701c0.439-0.051,0.879-0.103,1.318-0.152c-2.36-21.321-4.399-42.684-7.161-63.951
		c-3.993-30.773-19.135-54.843-44.993-72.085c-1.795-1.196-3.65-2.375-5.629-3.208c-3.54-1.489-6.659-0.508-8.709,2.671
		c-2.188,3.395-1.609,6.724,1.424,9.4c1.23,1.085,2.789,1.799,4.203,2.673c18.212,11.262,31.381,26.932,36.096,47.771
		c4.202,18.578,7.08,37.673,8.245,56.681c4.303,70.143-11.481,135.822-46.274,196.908c-0.822,1.442-1.812,2.856-2.289,4.418
		c-1.161,3.781-0.188,6.973,3.467,8.885c3.474,1.818,6.488,0.795,8.897-2.062c0.952-1.131,1.618-2.515,2.356-3.814
		C565.237,459.744,581.396,398.312,581.846,332.701 M478.693,30.052c-8.14,0.5-16.312,0.687-24.41,1.548
		c-69.096,7.352-125.525,38.261-169.771,91.663c-2.548,3.073-5.052,6.218-7.208,9.567c-2.349,3.648-1.502,7.163,1.961,9.637
		c3.296,2.356,6.652,1.772,9.451-1.104c1.268-1.302,2.249-2.883,3.358-4.34C354.246,55.331,462.35,23.598,558.699,58.869
		c7.635,2.796,14.884,6.66,22.541,9.381c2.392,0.85,6.104,0.406,8.159-0.992c1.629-1.108,2.742-4.936,2.098-6.906
		c-0.745-2.274-3.355-4.483-5.692-5.607C551.983,38.464,516.244,30.437,478.693,30.052 M642.188,325.238
		c0.197-16.929-2.377-41.732-6.347-66.439c-4.153-25.845-12.989-49.786-28.171-71.237c-3.312-4.682-7.232-5.802-10.973-3.277
		c-3.711,2.507-4.166,6.851-0.99,11.377c11.918,16.985,19.739,35.574,23.874,55.999c12.886,63.663,10.781,126.778-6.154,189.388
		c-3.598,13.301-8.335,26.299-12.712,39.381c-1.209,3.615-1.012,7.029,2.231,8.806c2.121,1.159,5.669,1.426,7.771,0.416
		c1.989-0.957,3.371-3.937,4.262-6.312C633.108,435,642.111,384.992,642.188,325.238 M287.032,435.572
		c2.634-1.527,4.69-2.314,6.24-3.679c36.095-31.735,51.654-71.44,45.009-119.155c-2.371-17.016-5.053-33.881-2.831-51.074
		c4.867-37.688,22.057-68.644,51.05-93.126c4.27-3.607,5.117-7.823,2.397-11.254c-2.843-3.588-7.31-3.654-11.781,0.28
		c-40.354,35.495-59.488,80.028-56.267,133.784c0.583,9.727,3.07,19.321,4.07,29.04c3.914,38.009-8.334,70.068-36.075,96.261
		c-2.058,1.94-4.812,3.401-6.208,5.711c-1.291,2.135-2.158,5.43-1.433,7.625C281.925,432.168,284.862,433.619,287.032,435.572
		 M491.293,331.34c-0.415-7.393-0.6-16.397-1.509-25.332c-0.927-9.092-2.459-18.131-3.938-27.16
		c-0.778-4.758-4.316-7.475-8.265-6.865c-4.323,0.667-6.708,4.386-5.945,9.3c0.256,1.643,0.565,3.277,0.863,4.916
		c5.344,29.426,5.888,58.938,1.103,88.461c-8.051,49.682-28.797,93.483-61.574,131.637c-3.896,4.533-4.061,8.848-0.588,11.814
		c3.45,2.946,7.771,2.069,11.589-2.435C467.732,462.967,490.084,401.934,491.293,331.34 M727.536,271.449
		c0.354-0.066,0.709-0.132,1.062-0.198c-2.545-16.067-4.097-32.369-7.811-48.162c-14.296-60.777-47.146-109.471-97.516-146.343
		c-4.763-3.486-9.218-3.21-11.824,0.508c-2.616,3.73-1.581,7.62,3.092,11.003c51.195,37.07,82.859,86.694,94.383,148.759
		c2.778,14.962,2.894,30.426,4.064,45.671c0.4,5.219,2.838,8.451,7.141,8.535c4.274,0.082,7.168-3.05,7.377-8.285
		C727.659,279.113,727.536,275.279,727.536,271.449 M551.678,320.492c0.316-0.064,0.632-0.129,0.948-0.193
		c-2.858-19.379-4.552-39.021-8.845-58.077c-6.742-29.925-35.94-51.057-67.325-50.657c-29.707,0.38-57.311,22.97-63.999,52.375
		c-1.083,4.759,0.711,8.56,4.577,9.698c4.312,1.27,7.793-0.92,9.31-5.88c0.292-0.953,0.494-1.934,0.753-2.897
		c10.071-37.513,57.385-51.88,86.644-26.367c11.173,9.742,16.408,22.521,18.093,36.69c2.219,18.648,3.597,37.4,5.235,56.117
		c0.443,5.068,3.233,8.369,7.478,8.271c4.062-0.092,6.938-3.263,7.106-8.095C551.781,327.82,551.678,324.154,551.678,320.492
		 M430.954,332.828c-0.315-5.805-0.549-11.127-0.91-16.441c-0.227-3.317-0.64-6.623-0.976-9.934
		c-0.642-6.316-3.565-9.388-8.388-8.82c-4.593,0.541-6.593,4.029-5.901,10.185c6.04,53.77-6.232,102.821-38.527,146.401
		c-7.297,9.849-16.184,18.523-24.397,27.685c-3.334,3.717-3.691,7.512-0.768,10.629c2.853,3.041,7.084,3.004,10.678-0.107
		c0.503-0.436,0.962-0.92,1.436-1.387C407.485,447.408,429.512,394.299,430.954,332.828 M261.292,161.924
		c-1.201,1.322-3.926,3.29-5.263,5.953c-18.793,37.487-27.418,77.246-26.186,119.162c0.512,17.359,2.614,34.49,7.102,51.289
		c1.203,4.504,4.574,6.779,8.387,5.996c4.145-0.853,6.365-4.414,5.643-9.113c-0.127-0.816-0.426-1.608-0.615-2.416
		c-10.389-44.42-8.296-88.228,6.932-131.25c3.432-9.695,8.04-18.973,12.089-28.449C271.837,167.346,268.781,161.823,261.292,161.924
		 M581.475,160.589c-1.214-1.374-2.973-4.179-5.441-6.04c-38.513-29.024-81.581-39.604-128.972-30.405
		c-11.643,2.26-22.847,6.95-34.105,10.938c-4.356,1.543-5.741,5.614-4.209,9.329c1.643,3.986,5.444,5.46,9.968,3.83
		c0.936-0.336,1.807-0.85,2.733-1.215c51.813-20.45,100.313-14.879,145.27,18.509c1.466,1.089,2.849,2.362,4.458,3.168
		C575.943,171.089,581.396,167.668,581.475,160.589 M549.21,373.377c0.455-5.953-1.521-9.24-5.934-9.795
		c-4.735-0.596-7.469,2.295-8.411,8.236c-1.669,10.508-3.187,21.062-5.447,31.448c-8.802,40.447-25.113,77.709-48.253,112.011
		c-3.205,4.752-2.741,8.805,1.037,11.364c3.596,2.437,7.743,1.416,10.656-2.905C523.627,478.107,542.394,427.977,549.21,373.377
		 M672.081,334.191c0-5.994,0.063-11.986-0.023-17.979c-0.059-3.99-0.099-8.008-0.581-11.961c-0.508-4.168-3.085-6.586-7.434-6.539
		c-3.968,0.041-6.785,3.229-6.929,7.633c-0.038,1.162,0.081,2.33,0.15,3.492c2.274,37.592-0.459,74.832-8.006,111.713
		c-1.799,8.789-4.066,17.482-6.043,26.236c-1.057,4.684,0.922,8.412,4.9,9.58c3.858,1.131,7.543-1.207,9.011-5.729
		c0.258-0.791,0.508-1.586,0.714-2.393C667.388,410.828,672.438,372.832,672.081,334.191 M310.041,330.84
		c-1.767-14.078-3.687-30.057-5.831-46.006c-0.518-3.838-3.426-5.736-7.154-5.607c-4.018,0.139-6.515,2.572-6.875,6.572
		c-0.237,2.625,0.009,5.336,0.366,7.965c1.438,10.533,3.443,21.006,4.438,31.576c2.595,27.539-6.759,50.637-26.914,69.461
		c-1.213,1.133-3.037,2.146-3.405,3.525c-0.634,2.379-1.178,5.416-0.192,7.399c0.893,1.806,3.894,3.591,5.92,3.539
		c2.325-0.057,4.995-1.715,6.838-3.412C298.562,386.197,308.94,361.582,310.041,330.84 M445.033,419.363
		c-1.752-1.672-3.517-4.56-5.998-5.457c-4.213-1.523-7.017,1.057-8.95,5.016c-6.185,12.666-11.556,25.898-19.192,37.644
		c-8.925,13.723-19.797,26.192-30.061,39.02c-2.791,3.488-4.435,6.742-1.64,10.705c2.914,4.129,7.96,3.764,12.339-0.838
		c22.248-23.381,39.494-50.002,51.547-79.959C443.691,423.969,444.085,422.355,445.033,419.363 M307.169,458.113
		c2.661-1.568,5.131-2.424,6.771-4.095c8.034-8.184,16.327-16.188,23.618-25.008c9.373-11.336,16.297-24.276,21.7-37.996
		c1.38-3.498,1.322-7.069-1.935-8.854c-2.227-1.221-5.75-1.267-8.223-0.435c-1.711,0.574-2.981,3.392-3.83,5.462
		c-9.021,21.991-22.618,40.618-40.746,55.969c-1.009,0.854-2.511,1.711-2.74,2.789c-0.518,2.438-1.155,5.336-0.284,7.444
		C302.29,455.303,305.009,456.418,307.169,458.113 M598.86,434.416c0.305-0.379,0.608-0.758,0.914-1.137
		c-2.28-2-4.259-4.869-6.914-5.797c-4.027-1.406-7.046,1.061-8.312,5.073c-2.096,6.65-3.586,13.521-6.089,20.006
		c-6.208,16.099-12.794,32.054-19.336,48.021c-2.496,6.09,0.468,11.469,6.397,11.264c3.979-0.141,5.704-2.854,7.191-5.979
		c10.302-21.646,18.674-44.008,25.112-67.096C598.229,437.334,598.519,435.869,598.86,434.416"/>
	<path clip-path="url(#SVGID_2_)" fill="none" d="M613.265,333.562c-1.4-27.988-3.449-55.715-10.008-82.829
		c-16.018-66.222-77.857-107.754-145.232-98.042c-62.861,9.062-112.41,71.035-107.254,134.348c0.658,8.094,2.649,16.086,3.173,24.18
		c0.782,12.078,0.894,24.203,1.11,36.312c0.088,4.914,2.245,8.145,6.394,8.629c4.124,0.481,7.172-2.178,8.046-7.033
		c0.116-0.656,0.287-1.322,0.265-1.979c-0.397-12.623,0.243-25.396-1.497-37.835c-2.337-16.702-4.914-33.205-2.055-50.067
		c8.521-50.271,49.194-87.714,101.522-93.366c50.364-5.441,98.261,23.685,116.364,71.347c9.075,23.894,11.169,49.197,12.866,74.445
		c1.852,27.527,0.031,54.91-4.104,82.164c-0.872,5.744,1.232,9.23,5.646,9.869c4.679,0.676,7.901-2.1,8.535-8.101
		C609.217,374.934,611.204,354.244,613.265,333.562z M469.8,90.726c-40.025,0.616-82.341,16.77-118.034,49.36
		c-30.834,28.152-50.311,62.919-58.541,103.904c-1.287,6.408,0.524,10.14,5.159,11.176c4.584,1.024,7.608-1.745,8.981-8.217
		c0.103-0.488,0.27-0.963,0.37-1.452C326.413,154.101,409.36,94.386,501.781,106.64c56.069,7.434,98.387,36.475,127.354,84.977
		c13.64,22.838,19.79,48.119,23.769,74.078c0.923,6.019,3.812,8.771,8.53,8.125c4.474-0.613,6.677-4.037,5.663-9.824
		c-1.859-10.627-3.474-21.342-6.161-31.771C639.645,149.618,563.179,90.557,469.8,90.726z M521.428,329.93
		c-0.411-7.315-0.513-17.51-1.675-27.584c-1.328-11.52-2.535-23.234-5.699-34.321c-5.334-18.689-26.285-29.92-44.677-25.29
		c-18.341,4.616-30.91,24.4-27.828,43.438c1.7,10.492,3.511,21.006,4.371,31.584c1.741,21.371-0.005,42.584-4.417,63.578
		c-0.961,4.576,1.386,8.365,5.422,9.229c3.828,0.815,7.298-1.511,8.578-5.785c0.238-0.793,0.351-1.625,0.521-2.438
		c7.131-33.928,5.934-67.832-0.204-101.737c-2.007-11.086,5.155-21.064,16.911-23.858c12.584-2.99,24.976,2.719,27.013,14.028
		c3.146,17.471,6.305,35.153,6.913,52.833c2.4,69.797-18.292,132.522-60.274,188.274c-0.801,1.064-1.683,2.086-2.344,3.23
		c-2.12,3.674-1.794,7.162,1.641,9.76c3.457,2.611,6.878,1.922,9.81-1.166c0.799-0.842,1.463-1.812,2.164-2.744
		C499.568,465.234,520.634,402.461,521.428,329.93z M273.008,278.045c1.478-40.088,11.767-77.244,33.99-110.527
		c36.927-55.304,89.146-85.596,155.138-91.679c13.975-1.289,28.23,0.309,42.348,0.802c5.696,0.199,9.428-2.25,9.508-6.979
		c0.074-4.358-2.658-6.928-8.73-7.635c-20.298-2.363-40.598-2.251-60.766,1.107c-53.732,8.947-98.496,34.115-133.198,76.07
		c-38.104,46.07-55.232,99.231-50.466,159.051c0.789,9.918,2.998,19.713,4.101,29.615c1.717,15.424-3.012,28.887-13.185,40.545
		c-3.657,4.188-3.554,8.52,0.005,11.354c3.47,2.763,7.342,2.199,10.891-2.002c13.921-16.479,19.044-35.448,16.025-56.772
		C276.645,306.699,274.884,292.363,273.008,278.045z M702.96,341.762c-0.755-44.775-3.122-81.352-12.848-116.859
		c-20.243-73.902-67.004-124.108-138.246-151.777c-2.475-0.961-5.006-1.917-7.601-2.386c-3.931-0.71-7.014,0.877-8.157,4.817
		c-1.106,3.803,0.216,6.924,3.904,8.715c1.336,0.648,2.816,0.997,4.23,1.487c36.907,12.78,68.092,33.887,92.753,64.271
		c22.034,27.146,35.646,58.031,42.284,92.461c6.433,33.362,9.614,66.876,8.686,100.761c-0.434,15.791-2.049,31.553-3.122,47.328
		c-0.381,5.6,1.658,8.711,6.005,9.213c4.636,0.533,7.736-2.188,8.2-7.822C700.646,372.566,702.082,353.148,702.96,341.762z
		 M476.874,181.401c-43.164,1.053-79.59,29.148-92.116,70.612c-5.604,18.553-3.707,36.889-0.838,55.708
		c7.836,51.394-5.588,97.285-38.768,137.254c-5.717,6.89-12.714,12.701-18.688,19.396c-1.719,1.928-3.026,5.457-2.492,7.787
		c0.479,2.094,3.611,4.703,5.821,4.963c2.308,0.27,5.404-1.465,7.314-3.23c43.271-40.03,64.677-89.526,62.929-148.518
		c-0.396-13.363-3.562-26.623-4.839-39.988c-3.282-34.401,15.636-67.032,46.993-81.593c13.061-6.064,26.801-8.765,41.22-8.081
		c5.729,0.271,9.087-2.215,9.417-6.564c0.34-4.469-2.961-7.368-8.966-7.725C481.539,181.286,479.202,181.401,476.874,181.401z
		 M581.846,332.701c0.439-0.051,0.879-0.103,1.318-0.152c-2.36-21.321-4.399-42.684-7.161-63.951
		c-3.993-30.773-19.135-54.843-44.993-72.085c-1.795-1.196-3.65-2.375-5.629-3.208c-3.54-1.489-6.659-0.508-8.709,2.671
		c-2.188,3.395-1.609,6.724,1.424,9.4c1.23,1.085,2.789,1.799,4.203,2.673c18.212,11.262,31.381,26.932,36.096,47.771
		c4.202,18.578,7.08,37.673,8.245,56.681c4.303,70.143-11.481,135.822-46.274,196.908c-0.822,1.442-1.812,2.856-2.289,4.418
		c-1.161,3.781-0.188,6.973,3.467,8.885c3.474,1.818,6.488,0.795,8.897-2.062c0.952-1.131,1.618-2.515,2.356-3.814
		C565.237,459.744,581.396,398.312,581.846,332.701z M478.693,30.052c-8.14,0.5-16.312,0.687-24.41,1.548
		c-69.096,7.352-125.525,38.261-169.771,91.663c-2.548,3.073-5.052,6.218-7.208,9.567c-2.349,3.648-1.502,7.163,1.961,9.637
		c3.296,2.356,6.652,1.772,9.451-1.104c1.268-1.302,2.249-2.883,3.358-4.34C354.246,55.331,462.35,23.598,558.699,58.869
		c7.635,2.796,14.884,6.66,22.541,9.381c2.392,0.85,6.104,0.406,8.159-0.992c1.629-1.108,2.742-4.936,2.098-6.906
		c-0.745-2.274-3.355-4.483-5.692-5.607C551.983,38.464,516.244,30.437,478.693,30.052z M642.188,325.238
		c0.197-16.929-2.377-41.732-6.347-66.439c-4.153-25.845-12.989-49.786-28.171-71.237c-3.312-4.682-7.232-5.802-10.973-3.277
		c-3.711,2.507-4.166,6.851-0.99,11.377c11.918,16.985,19.739,35.574,23.874,55.999c12.886,63.663,10.781,126.778-6.154,189.388
		c-3.598,13.301-8.335,26.299-12.712,39.381c-1.209,3.615-1.012,7.029,2.231,8.806c2.121,1.159,5.669,1.426,7.771,0.416
		c1.989-0.957,3.371-3.937,4.262-6.312C633.108,435,642.111,384.992,642.188,325.238z M287.032,435.572
		c2.634-1.527,4.69-2.314,6.24-3.679c36.095-31.735,51.654-71.44,45.009-119.155c-2.371-17.016-5.053-33.881-2.831-51.074
		c4.867-37.688,22.057-68.644,51.05-93.126c4.27-3.607,5.117-7.823,2.397-11.254c-2.843-3.588-7.31-3.654-11.781,0.28
		c-40.354,35.495-59.488,80.028-56.267,133.784c0.583,9.727,3.07,19.321,4.07,29.04c3.914,38.009-8.334,70.068-36.075,96.261
		c-2.058,1.94-4.812,3.401-6.208,5.711c-1.291,2.135-2.158,5.43-1.433,7.625C281.925,432.168,284.862,433.619,287.032,435.572z
		 M491.293,331.34c-0.415-7.393-0.6-16.397-1.509-25.332c-0.927-9.092-2.459-18.131-3.938-27.16
		c-0.778-4.758-4.316-7.475-8.265-6.865c-4.323,0.667-6.708,4.386-5.945,9.3c0.256,1.643,0.565,3.277,0.863,4.916
		c5.344,29.426,5.888,58.938,1.103,88.461c-8.051,49.682-28.797,93.483-61.574,131.637c-3.896,4.533-4.061,8.848-0.588,11.814
		c3.45,2.946,7.771,2.069,11.589-2.435C467.732,462.967,490.084,401.934,491.293,331.34z M727.536,271.449
		c0.354-0.066,0.709-0.132,1.062-0.198c-2.545-16.067-4.097-32.369-7.811-48.162c-14.296-60.777-47.146-109.471-97.516-146.343
		c-4.763-3.486-9.218-3.21-11.824,0.508c-2.616,3.73-1.581,7.62,3.092,11.003c51.195,37.07,82.859,86.694,94.383,148.759
		c2.778,14.962,2.894,30.426,4.064,45.671c0.4,5.219,2.838,8.451,7.141,8.535c4.274,0.082,7.168-3.05,7.377-8.285
		C727.659,279.113,727.536,275.279,727.536,271.449z M551.678,320.492c0.316-0.064,0.632-0.129,0.948-0.193
		c-2.858-19.379-4.552-39.021-8.845-58.077c-6.742-29.925-35.94-51.057-67.325-50.657c-29.707,0.38-57.311,22.97-63.999,52.375
		c-1.083,4.759,0.711,8.56,4.577,9.698c4.312,1.27,7.793-0.92,9.31-5.88c0.292-0.953,0.494-1.934,0.753-2.897
		c10.071-37.513,57.385-51.88,86.644-26.367c11.173,9.742,16.408,22.521,18.093,36.69c2.219,18.648,3.597,37.4,5.235,56.117
		c0.443,5.068,3.233,8.369,7.478,8.271c4.062-0.092,6.938-3.263,7.106-8.095C551.781,327.82,551.678,324.154,551.678,320.492z
		 M430.954,332.828c-0.315-5.805-0.549-11.127-0.91-16.441c-0.227-3.317-0.64-6.623-0.976-9.934
		c-0.642-6.316-3.565-9.388-8.388-8.82c-4.593,0.541-6.593,4.029-5.901,10.185c6.04,53.77-6.232,102.821-38.527,146.401
		c-7.297,9.849-16.184,18.523-24.397,27.685c-3.334,3.717-3.691,7.512-0.768,10.629c2.853,3.041,7.084,3.004,10.678-0.107
		c0.503-0.436,0.962-0.92,1.436-1.387C407.485,447.408,429.512,394.299,430.954,332.828z M261.292,161.924
		c-1.201,1.322-3.926,3.29-5.263,5.953c-18.793,37.487-27.418,77.246-26.186,119.162c0.512,17.359,2.614,34.49,7.102,51.289
		c1.203,4.504,4.574,6.779,8.387,5.996c4.145-0.853,6.365-4.414,5.643-9.113c-0.127-0.816-0.426-1.608-0.615-2.416
		c-10.389-44.42-8.296-88.228,6.932-131.25c3.432-9.695,8.04-18.973,12.089-28.449C271.837,167.346,268.781,161.823,261.292,161.924
		z M581.475,160.589c-1.214-1.374-2.973-4.179-5.441-6.04c-38.513-29.024-81.581-39.604-128.972-30.405
		c-11.643,2.26-22.847,6.95-34.105,10.938c-4.356,1.543-5.741,5.614-4.209,9.329c1.643,3.986,5.444,5.46,9.968,3.83
		c0.936-0.336,1.807-0.85,2.733-1.215c51.813-20.45,100.313-14.879,145.27,18.509c1.466,1.089,2.849,2.362,4.458,3.168
		C575.943,171.089,581.396,167.668,581.475,160.589z M549.21,373.377c0.455-5.953-1.521-9.24-5.934-9.795
		c-4.735-0.596-7.469,2.295-8.411,8.236c-1.669,10.508-3.187,21.062-5.447,31.448c-8.802,40.447-25.113,77.709-48.253,112.011
		c-3.205,4.752-2.741,8.805,1.037,11.364c3.596,2.437,7.743,1.416,10.656-2.905C523.627,478.107,542.394,427.977,549.21,373.377z
		 M672.081,334.191c0-5.994,0.063-11.986-0.023-17.979c-0.059-3.99-0.099-8.008-0.581-11.961c-0.508-4.168-3.085-6.586-7.434-6.539
		c-3.968,0.041-6.785,3.229-6.929,7.633c-0.038,1.162,0.081,2.33,0.15,3.492c2.274,37.592-0.459,74.832-8.006,111.713
		c-1.799,8.789-4.066,17.482-6.043,26.236c-1.057,4.684,0.922,8.412,4.9,9.58c3.858,1.131,7.543-1.207,9.011-5.729
		c0.258-0.791,0.508-1.586,0.714-2.393C667.388,410.828,672.438,372.832,672.081,334.191z M310.041,330.84
		c-1.767-14.078-3.687-30.057-5.831-46.006c-0.518-3.838-3.426-5.736-7.154-5.607c-4.018,0.139-6.515,2.572-6.875,6.572
		c-0.237,2.625,0.009,5.336,0.366,7.965c1.438,10.533,3.443,21.006,4.438,31.576c2.595,27.539-6.759,50.637-26.914,69.461
		c-1.213,1.133-3.037,2.146-3.405,3.525c-0.634,2.379-1.178,5.416-0.192,7.399c0.893,1.806,3.894,3.591,5.92,3.539
		c2.325-0.057,4.995-1.715,6.838-3.412C298.562,386.197,308.94,361.582,310.041,330.84z M445.033,419.363
		c-1.752-1.672-3.517-4.56-5.998-5.457c-4.213-1.523-7.017,1.057-8.95,5.016c-6.185,12.666-11.556,25.898-19.192,37.644
		c-8.925,13.723-19.797,26.192-30.061,39.02c-2.791,3.488-4.435,6.742-1.64,10.705c2.914,4.129,7.96,3.764,12.339-0.838
		c22.248-23.381,39.494-50.002,51.547-79.959C443.691,423.969,444.085,422.355,445.033,419.363z M307.169,458.113
		c2.661-1.568,5.131-2.424,6.771-4.095c8.034-8.184,16.327-16.188,23.618-25.008c9.373-11.336,16.297-24.276,21.7-37.996
		c1.38-3.498,1.322-7.069-1.935-8.854c-2.227-1.221-5.75-1.267-8.223-0.435c-1.711,0.574-2.981,3.392-3.83,5.462
		c-9.021,21.991-22.618,40.618-40.746,55.969c-1.009,0.854-2.511,1.711-2.74,2.789c-0.518,2.438-1.155,5.336-0.284,7.444
		C302.29,455.303,305.009,456.418,307.169,458.113z M598.86,434.416c0.305-0.379,0.608-0.758,0.914-1.137
		c-2.28-2-4.259-4.869-6.914-5.797c-4.027-1.406-7.046,1.061-8.312,5.073c-2.096,6.65-3.586,13.521-6.089,20.006
		c-6.208,16.099-12.794,32.054-19.336,48.021c-2.496,6.09,0.468,11.469,6.397,11.264c3.979-0.141,5.704-2.854,7.191-5.979
		c10.302-21.646,18.674-44.008,25.112-67.096C598.229,437.334,598.519,435.869,598.86,434.416z"/>
	<path clip-path="url(#SVGID_2_)" fill="#54FA97" d="M613.265,333.562c-2.061,20.682-4.048,41.37-6.228,62.043
		c-0.634,6.002-3.856,8.776-8.535,8.102c-4.413-0.639-6.519-4.125-5.646-9.869c4.135-27.254,5.953-54.637,4.104-82.164
		c-1.697-25.248-3.791-50.551-12.866-74.444c-18.104-47.664-66-76.789-116.365-71.348c-52.327,5.653-93.002,43.096-101.522,93.366
		c-2.859,16.863-0.281,33.366,2.056,50.067c1.739,12.438,1.1,25.213,1.497,37.836c0.021,0.655-0.148,1.321-0.266,1.979
		c-0.874,4.855-3.922,7.516-8.045,7.033c-4.148-0.484-6.306-3.715-6.394-8.629c-0.217-12.109-0.328-24.234-1.11-36.312
		c-0.523-8.093-2.515-16.086-3.174-24.18c-5.156-63.313,44.394-125.287,107.255-134.349c67.375-9.712,129.216,31.819,145.232,98.042
		C609.814,277.849,611.863,305.574,613.265,333.562"/>
	<path clip-path="url(#SVGID_2_)" fill="none" d="M613.265,333.562c-2.061,20.682-4.048,41.37-6.228,62.043
		c-0.634,6.002-3.856,8.776-8.535,8.102c-4.413-0.639-6.519-4.125-5.646-9.869c4.135-27.254,5.953-54.637,4.104-82.164
		c-1.697-25.248-3.791-50.551-12.866-74.444c-18.104-47.664-66-76.789-116.365-71.348c-52.327,5.653-93.002,43.096-101.522,93.366
		c-2.859,16.863-0.281,33.366,2.056,50.067c1.739,12.438,1.1,25.213,1.497,37.836c0.021,0.655-0.148,1.321-0.266,1.979
		c-0.874,4.855-3.922,7.516-8.045,7.033c-4.148-0.484-6.306-3.715-6.394-8.629c-0.217-12.109-0.328-24.234-1.11-36.312
		c-0.523-8.093-2.515-16.086-3.174-24.18c-5.156-63.313,44.394-125.287,107.255-134.349c67.375-9.712,129.216,31.819,145.232,98.042
		C609.814,277.849,611.863,305.574,613.265,333.562z"/>
	<path clip-path="url(#SVGID_2_)" fill="#54FA97" d="M469.801,90.726c93.378-0.169,169.844,58.892,191.135,141.499
		c2.688,10.428,4.303,21.144,6.161,31.771c1.014,5.787-1.189,9.211-5.663,9.824c-4.718,0.645-7.607-2.106-8.531-8.125
		c-3.978-25.958-10.129-51.24-23.768-74.078c-28.966-48.501-71.283-77.543-127.354-84.977
		c-92.42-12.253-175.37,47.461-194.045,138.857c-0.101,0.489-0.268,0.964-0.371,1.452c-1.373,6.472-4.396,9.241-8.98,8.217
		c-4.636-1.036-6.447-4.768-5.16-11.176c8.23-40.984,27.707-75.751,58.541-103.904C387.459,107.496,429.775,91.342,469.801,90.726"
		/>
	<path clip-path="url(#SVGID_2_)" fill="none" d="M469.801,90.726c93.378-0.169,169.844,58.892,191.135,141.499
		c2.688,10.428,4.303,21.144,6.161,31.771c1.014,5.787-1.189,9.211-5.663,9.824c-4.718,0.645-7.607-2.106-8.531-8.125
		c-3.978-25.958-10.129-51.24-23.768-74.078c-28.966-48.501-71.283-77.543-127.354-84.977
		c-92.42-12.253-175.37,47.461-194.045,138.857c-0.101,0.489-0.268,0.964-0.371,1.452c-1.373,6.472-4.396,9.241-8.98,8.217
		c-4.636-1.036-6.447-4.768-5.16-11.176c8.23-40.984,27.707-75.751,58.541-103.904C387.459,107.496,429.775,91.342,469.801,90.726z"
		/>
	<path clip-path="url(#SVGID_2_)" fill="#54FA97" d="M521.428,329.93c-0.794,72.531-21.858,135.306-63.774,191.031
		c-0.702,0.932-1.366,1.902-2.164,2.744c-2.932,3.088-6.353,3.777-9.81,1.166c-3.436-2.598-3.762-6.086-1.642-9.76
		c0.662-1.146,1.543-2.166,2.345-3.23c41.981-55.752,62.675-118.479,60.273-188.274c-0.608-17.681-3.767-35.361-6.912-52.834
		c-2.038-11.309-14.43-17.018-27.014-14.028c-11.756,2.794-18.918,12.772-16.911,23.859c6.137,33.905,7.335,67.811,0.205,101.737
		c-0.171,0.812-0.285,1.646-0.523,2.438c-1.279,4.274-4.75,6.602-8.577,5.785c-4.036-0.863-6.384-4.652-5.423-9.229
		c4.412-20.994,6.159-42.207,4.418-63.578c-0.86-10.578-2.672-21.092-4.371-31.584c-3.082-19.038,9.487-38.823,27.827-43.438
		c18.393-4.63,39.344,6.601,44.678,25.29c3.164,11.086,4.371,22.801,5.7,34.321C520.915,312.42,521.017,322.613,521.428,329.93"/>
	<path clip-path="url(#SVGID_2_)" fill="none" d="M521.428,329.93c-0.794,72.531-21.858,135.306-63.774,191.031
		c-0.702,0.932-1.366,1.902-2.164,2.744c-2.932,3.088-6.353,3.777-9.81,1.166c-3.436-2.598-3.762-6.086-1.642-9.76
		c0.662-1.146,1.543-2.166,2.345-3.23c41.981-55.752,62.675-118.479,60.273-188.274c-0.608-17.681-3.767-35.361-6.912-52.834
		c-2.038-11.309-14.43-17.018-27.014-14.028c-11.756,2.794-18.918,12.772-16.911,23.859c6.137,33.905,7.335,67.811,0.205,101.737
		c-0.171,0.812-0.285,1.646-0.523,2.438c-1.279,4.274-4.75,6.602-8.577,5.785c-4.036-0.863-6.384-4.652-5.423-9.229
		c4.412-20.994,6.159-42.207,4.418-63.578c-0.86-10.578-2.672-21.092-4.371-31.584c-3.082-19.038,9.487-38.823,27.827-43.438
		c18.393-4.63,39.344,6.601,44.678,25.29c3.164,11.086,4.371,22.801,5.7,34.321C520.915,312.42,521.017,322.613,521.428,329.93z"/>
	<path clip-path="url(#SVGID_2_)" fill="#54FA97" d="M273.009,278.045c1.876,14.318,3.635,28.654,5.658,42.951
		c3.019,21.324-2.104,40.295-16.025,56.772c-3.548,4.201-7.421,4.765-10.89,2.003c-3.559-2.837-3.662-7.166-0.006-11.355
		c10.174-11.658,14.902-25.121,13.185-40.545c-1.103-9.902-3.312-19.697-4.101-29.615c-4.766-59.82,12.362-112.981,50.467-159.051
		c34.701-41.955,79.465-67.123,133.197-76.07c20.168-3.358,40.469-3.47,60.767-1.107c6.072,0.707,8.806,3.277,8.73,7.635
		c-0.08,4.729-3.812,7.178-9.508,6.979c-14.118-0.493-28.373-2.091-42.348-0.802c-65.992,6.083-118.211,36.375-155.139,91.679
		C284.775,200.801,274.486,237.957,273.009,278.045"/>
	<path clip-path="url(#SVGID_2_)" fill="none" d="M273.009,278.045c1.876,14.318,3.635,28.654,5.658,42.951
		c3.019,21.324-2.104,40.295-16.025,56.772c-3.548,4.201-7.421,4.765-10.89,2.003c-3.559-2.837-3.662-7.166-0.006-11.355
		c10.174-11.658,14.902-25.121,13.185-40.545c-1.103-9.902-3.312-19.697-4.101-29.615c-4.766-59.82,12.362-112.981,50.467-159.051
		c34.701-41.955,79.465-67.123,133.197-76.07c20.168-3.358,40.469-3.47,60.767-1.107c6.072,0.707,8.806,3.277,8.73,7.635
		c-0.08,4.729-3.812,7.178-9.508,6.979c-14.118-0.493-28.373-2.091-42.348-0.802c-65.992,6.083-118.211,36.375-155.139,91.679
		C284.775,200.801,274.486,237.957,273.009,278.045z"/>
	<path clip-path="url(#SVGID_2_)" fill="#54FA97" d="M702.96,341.762c-0.878,11.388-2.313,30.806-3.911,50.209
		c-0.463,5.633-3.563,8.355-8.199,7.822c-4.347-0.502-6.386-3.613-6.005-9.213c1.073-15.775,2.688-31.537,3.122-47.328
		c0.93-33.885-2.252-67.398-8.686-100.76c-6.639-34.431-20.25-65.315-42.284-92.462c-24.66-30.384-55.846-51.491-92.753-64.271
		c-1.414-0.49-2.896-0.839-4.23-1.487c-3.688-1.791-5.012-4.912-3.904-8.715c1.146-3.939,4.228-5.527,8.158-4.816
		c2.594,0.468,5.125,1.424,7.6,2.385C623.109,100.794,669.87,151,690.113,224.903C699.838,260.411,702.205,296.986,702.96,341.762"
		/>
	<path clip-path="url(#SVGID_2_)" fill="none" d="M702.96,341.762c-0.878,11.388-2.313,30.806-3.911,50.209
		c-0.463,5.633-3.563,8.355-8.199,7.822c-4.347-0.502-6.386-3.613-6.005-9.213c1.073-15.775,2.688-31.537,3.122-47.328
		c0.93-33.885-2.252-67.398-8.686-100.76c-6.639-34.431-20.25-65.315-42.284-92.462c-24.66-30.384-55.846-51.491-92.753-64.271
		c-1.414-0.49-2.896-0.839-4.23-1.487c-3.688-1.791-5.012-4.912-3.904-8.715c1.146-3.939,4.228-5.527,8.158-4.816
		c2.594,0.468,5.125,1.424,7.6,2.385C623.109,100.794,669.87,151,690.113,224.903C699.838,260.411,702.205,296.986,702.96,341.762z"
		/>
	<path clip-path="url(#SVGID_2_)" fill="#54FA97" d="M476.873,181.401c2.329,0,4.666-0.115,6.987,0.022
		c6.005,0.356,9.306,3.255,8.966,7.725c-0.33,4.349-3.688,6.836-9.417,6.564c-14.419-0.684-28.159,2.017-41.22,8.081
		c-31.357,14.561-50.275,47.191-46.992,81.593c1.275,13.365,4.441,26.625,4.838,39.988c1.748,58.99-19.657,108.486-62.928,148.518
		c-1.91,1.767-5.008,3.5-7.315,3.23c-2.21-0.26-5.343-2.869-5.821-4.963c-0.534-2.33,0.773-5.859,2.493-7.787
		c5.974-6.695,12.971-12.508,18.688-19.396c33.179-39.969,46.604-85.86,38.768-137.254c-2.869-18.819-4.767-37.156,0.838-55.709
		C397.283,210.55,433.709,182.454,476.873,181.401"/>
	<path clip-path="url(#SVGID_2_)" fill="none" d="M476.873,181.401c2.329,0,4.666-0.115,6.987,0.022
		c6.005,0.356,9.306,3.255,8.966,7.725c-0.33,4.349-3.688,6.836-9.417,6.564c-14.419-0.684-28.159,2.017-41.22,8.081
		c-31.357,14.561-50.275,47.191-46.992,81.593c1.275,13.365,4.441,26.625,4.838,39.988c1.748,58.99-19.657,108.486-62.928,148.518
		c-1.91,1.767-5.008,3.5-7.315,3.23c-2.21-0.26-5.343-2.869-5.821-4.963c-0.534-2.33,0.773-5.859,2.493-7.787
		c5.974-6.695,12.971-12.508,18.688-19.396c33.179-39.969,46.604-85.86,38.768-137.254c-2.869-18.819-4.767-37.156,0.838-55.709
		C397.283,210.55,433.709,182.454,476.873,181.401z"/>
	<path clip-path="url(#SVGID_2_)" fill="#54FA97" d="M581.846,332.701c-0.448,65.61-16.607,127.043-49.049,184.135
		c-0.739,1.301-1.405,2.684-2.357,3.814c-2.408,2.856-5.424,3.881-8.896,2.062c-3.654-1.912-4.629-5.104-3.469-8.885
		c0.479-1.562,1.469-2.976,2.29-4.418c34.792-61.086,50.577-126.767,46.274-196.908c-1.165-19.008-4.043-38.104-8.246-56.681
		c-4.714-20.838-17.883-36.508-36.095-47.771c-1.414-0.874-2.974-1.588-4.203-2.673c-3.032-2.677-3.61-6.005-1.424-9.4
		c2.05-3.179,5.169-4.161,8.709-2.671c1.979,0.832,3.834,2.011,5.629,3.208c25.858,17.243,41,41.312,44.994,72.085
		c2.761,21.267,4.8,42.63,7.16,63.951C582.725,332.6,582.285,332.65,581.846,332.701"/>
	<path clip-path="url(#SVGID_2_)" fill="none" d="M581.846,332.701c-0.448,65.61-16.607,127.043-49.049,184.135
		c-0.739,1.301-1.405,2.684-2.357,3.814c-2.408,2.856-5.424,3.881-8.896,2.062c-3.654-1.912-4.629-5.104-3.469-8.885
		c0.479-1.562,1.469-2.976,2.29-4.418c34.792-61.086,50.577-126.767,46.274-196.908c-1.165-19.008-4.043-38.104-8.246-56.681
		c-4.714-20.838-17.883-36.508-36.095-47.771c-1.414-0.874-2.974-1.588-4.203-2.673c-3.032-2.677-3.61-6.005-1.424-9.4
		c2.05-3.179,5.169-4.161,8.709-2.671c1.979,0.832,3.834,2.011,5.629,3.208c25.858,17.243,41,41.312,44.994,72.085
		c2.761,21.267,4.8,42.63,7.16,63.951C582.725,332.6,582.285,332.65,581.846,332.701z"/>
	<path clip-path="url(#SVGID_2_)" fill="#54FA97" d="M478.693,30.052c37.551,0.385,73.29,8.412,107.11,24.691
		c2.337,1.125,4.948,3.333,5.692,5.607c0.646,1.971-0.469,5.798-2.098,6.906c-2.057,1.398-5.77,1.842-8.159,0.992
		c-7.657-2.721-14.906-6.585-22.541-9.381c-96.351-35.271-204.454-3.538-266.625,78.154c-1.109,1.457-2.091,3.038-3.358,4.34
		c-2.799,2.875-6.155,3.459-9.451,1.104c-3.463-2.474-4.31-5.989-1.961-9.637c2.157-3.349,4.661-6.494,7.208-9.567
		c44.247-53.4,100.677-84.309,169.772-91.661C462.382,30.738,470.554,30.552,478.693,30.052"/>
	<path clip-path="url(#SVGID_2_)" fill="none" d="M478.693,30.052c37.551,0.385,73.29,8.412,107.11,24.691
		c2.337,1.125,4.948,3.333,5.692,5.607c0.646,1.971-0.469,5.798-2.098,6.906c-2.057,1.398-5.77,1.842-8.159,0.992
		c-7.657-2.721-14.906-6.585-22.541-9.381c-96.351-35.271-204.454-3.538-266.625,78.154c-1.109,1.457-2.091,3.038-3.358,4.34
		c-2.799,2.875-6.155,3.459-9.451,1.104c-3.463-2.474-4.31-5.989-1.961-9.637c2.157-3.349,4.661-6.494,7.208-9.567
		c44.247-53.4,100.677-84.309,169.772-91.661C462.382,30.738,470.554,30.552,478.693,30.052z"/>
	<path clip-path="url(#SVGID_2_)" fill="#54FA97" d="M642.188,325.238c-0.076,59.754-9.079,109.762-27.21,158.101
		c-0.89,2.375-2.271,5.355-4.261,6.312c-2.102,1.01-5.648,0.743-7.771-0.416c-3.243-1.775-3.44-5.189-2.231-8.806
		c4.377-13.082,9.114-26.08,12.712-39.382c16.937-62.607,19.04-125.724,6.154-189.387c-4.135-20.426-11.957-39.014-23.875-55.999
		c-3.175-4.527-2.72-8.87,0.991-11.377c3.738-2.525,7.659-1.405,10.974,3.277c15.181,21.452,24.017,45.392,28.17,71.236
		C639.812,283.506,642.386,308.311,642.188,325.238"/>
	<path clip-path="url(#SVGID_2_)" fill="none" d="M642.188,325.238c-0.076,59.754-9.079,109.762-27.21,158.101
		c-0.89,2.375-2.271,5.355-4.261,6.312c-2.102,1.01-5.648,0.743-7.771-0.416c-3.243-1.775-3.44-5.189-2.231-8.806
		c4.377-13.082,9.114-26.08,12.712-39.382c16.937-62.607,19.04-125.724,6.154-189.387c-4.135-20.426-11.957-39.014-23.875-55.999
		c-3.175-4.527-2.72-8.87,0.991-11.377c3.738-2.525,7.659-1.405,10.974,3.277c15.181,21.452,24.017,45.392,28.17,71.236
		C639.812,283.506,642.386,308.311,642.188,325.238z"/>
	<path clip-path="url(#SVGID_2_)" fill="#54FA97" d="M287.032,435.572c-2.169-1.953-5.106-3.404-5.828-5.588
		c-0.726-2.195,0.142-5.49,1.433-7.625c1.396-2.309,4.15-3.771,6.208-5.711c27.741-26.191,39.989-58.252,36.076-96.261
		c-1-9.719-3.488-19.313-4.071-29.04c-3.221-53.755,15.912-98.29,56.267-133.783c4.473-3.934,8.938-3.869,11.782-0.28
		c2.719,3.431,1.871,7.647-2.398,11.254c-28.992,24.482-46.182,55.438-51.05,93.126c-2.222,17.193,0.46,34.059,2.831,51.074
		c6.646,47.715-8.914,87.42-45.008,119.155C291.723,433.259,289.666,434.045,287.032,435.572"/>
	<path clip-path="url(#SVGID_2_)" fill="none" d="M287.032,435.572c-2.169-1.953-5.106-3.404-5.828-5.588
		c-0.726-2.195,0.142-5.49,1.433-7.625c1.396-2.309,4.15-3.771,6.208-5.711c27.741-26.191,39.989-58.252,36.076-96.261
		c-1-9.719-3.488-19.313-4.071-29.04c-3.221-53.755,15.912-98.29,56.267-133.783c4.473-3.934,8.938-3.869,11.782-0.28
		c2.719,3.431,1.871,7.647-2.398,11.254c-28.992,24.482-46.182,55.438-51.05,93.126c-2.222,17.193,0.46,34.059,2.831,51.074
		c6.646,47.715-8.914,87.42-45.008,119.155C291.723,433.259,289.666,434.045,287.032,435.572z"/>
	<path clip-path="url(#SVGID_2_)" fill="#54FA97" d="M491.293,331.34c-1.209,70.594-23.561,131.627-68.264,184.338
		c-3.818,4.504-8.139,5.381-11.588,2.434c-3.473-2.967-3.308-7.28,0.588-11.813c32.777-38.151,53.523-81.955,61.574-131.637
		c4.784-29.521,4.24-59.035-1.104-88.461c-0.298-1.64-0.606-3.273-0.862-4.916c-0.764-4.915,1.622-8.633,5.944-9.3
		c3.948-0.61,7.486,2.107,8.266,6.865c1.479,9.029,3.012,18.068,3.938,27.16C490.693,314.941,490.879,323.947,491.293,331.34"/>
	<path clip-path="url(#SVGID_2_)" fill="none" d="M491.293,331.34c-1.209,70.594-23.561,131.627-68.264,184.338
		c-3.818,4.504-8.139,5.381-11.588,2.434c-3.473-2.967-3.308-7.28,0.588-11.813c32.777-38.151,53.523-81.955,61.574-131.637
		c4.784-29.521,4.24-59.035-1.104-88.461c-0.298-1.64-0.606-3.273-0.862-4.916c-0.764-4.915,1.622-8.633,5.944-9.3
		c3.948-0.61,7.486,2.107,8.266,6.865c1.479,9.029,3.012,18.068,3.938,27.16C490.693,314.941,490.879,323.947,491.293,331.34z"/>
	<path clip-path="url(#SVGID_2_)" fill="#54FA97" d="M727.536,271.449c0,3.831,0.123,7.665-0.03,11.488
		c-0.209,5.236-3.104,8.367-7.378,8.285c-4.303-0.084-6.739-3.315-7.141-8.535c-1.172-15.244-1.286-30.708-4.064-45.67
		C697.4,174.952,665.735,125.328,614.54,88.258c-4.673-3.383-5.708-7.273-3.092-11.003c2.606-3.718,7.062-3.994,11.823-0.508
		c50.368,36.872,83.221,85.565,97.517,146.343c3.714,15.793,5.266,32.095,7.81,48.162
		C728.245,271.317,727.89,271.382,727.536,271.449"/>
	<path clip-path="url(#SVGID_2_)" fill="none" d="M727.536,271.449c0,3.831,0.123,7.665-0.03,11.488
		c-0.209,5.236-3.104,8.367-7.378,8.285c-4.303-0.084-6.739-3.315-7.141-8.535c-1.172-15.244-1.286-30.708-4.064-45.67
		C697.4,174.952,665.735,125.328,614.54,88.258c-4.673-3.383-5.708-7.273-3.092-11.003c2.606-3.718,7.062-3.994,11.823-0.508
		c50.368,36.872,83.221,85.565,97.517,146.343c3.714,15.793,5.266,32.095,7.81,48.162
		C728.245,271.317,727.89,271.382,727.536,271.449z"/>
	<path clip-path="url(#SVGID_2_)" fill="#54FA97" d="M551.678,320.492c0,3.662,0.104,7.328-0.024,10.985
		c-0.17,4.832-3.044,8.003-7.106,8.095c-4.243,0.098-7.033-3.203-7.478-8.271c-1.64-18.717-3.018-37.469-5.235-56.117
		c-1.686-14.168-6.92-26.948-18.093-36.69c-29.259-25.513-76.573-11.146-86.644,26.367c-0.259,0.964-0.461,1.944-0.753,2.897
		c-1.518,4.96-4.997,7.15-9.311,5.88c-3.866-1.139-5.66-4.939-4.577-9.698c6.688-29.405,34.292-51.995,63.999-52.375
		c31.385-0.4,60.583,20.732,67.326,50.657c4.292,19.055,5.985,38.698,8.845,58.077C552.31,320.363,551.994,320.428,551.678,320.492"
		/>
	<path clip-path="url(#SVGID_2_)" fill="none" d="M551.678,320.492c0,3.662,0.104,7.328-0.024,10.985
		c-0.17,4.832-3.044,8.003-7.106,8.095c-4.243,0.098-7.033-3.203-7.478-8.271c-1.64-18.717-3.018-37.469-5.235-56.117
		c-1.686-14.168-6.92-26.948-18.093-36.69c-29.259-25.513-76.573-11.146-86.644,26.367c-0.259,0.964-0.461,1.944-0.753,2.897
		c-1.518,4.96-4.997,7.15-9.311,5.88c-3.866-1.139-5.66-4.939-4.577-9.698c6.688-29.405,34.292-51.995,63.999-52.375
		c31.385-0.4,60.583,20.732,67.326,50.657c4.292,19.055,5.985,38.698,8.845,58.077C552.31,320.363,551.994,320.428,551.678,320.492z
		"/>
	<path clip-path="url(#SVGID_2_)" fill="#54FA97" d="M430.953,332.828c-1.44,61.471-23.467,114.58-67.754,158.209
		c-0.474,0.467-0.933,0.951-1.436,1.387c-3.593,3.111-7.824,3.148-10.677,0.107c-2.925-3.117-2.567-6.912,0.767-10.629
		c8.215-9.16,17.101-17.836,24.397-27.685c32.296-43.58,44.568-92.633,38.528-146.401c-0.691-6.154,1.309-9.644,5.9-10.185
		c4.823-0.567,7.747,2.504,8.388,8.82c0.336,3.311,0.749,6.615,0.976,9.934C430.404,321.701,430.639,327.023,430.953,332.828"/>
	<path clip-path="url(#SVGID_2_)" fill="none" d="M430.953,332.828c-1.44,61.471-23.467,114.58-67.754,158.209
		c-0.474,0.467-0.933,0.951-1.436,1.387c-3.593,3.111-7.824,3.148-10.677,0.107c-2.925-3.117-2.567-6.912,0.767-10.629
		c8.215-9.16,17.101-17.836,24.397-27.685c32.296-43.58,44.568-92.633,38.528-146.401c-0.691-6.154,1.309-9.644,5.9-10.185
		c4.823-0.567,7.747,2.504,8.388,8.82c0.336,3.311,0.749,6.615,0.976,9.934C430.404,321.701,430.639,327.023,430.953,332.828z"/>
	<path clip-path="url(#SVGID_2_)" fill="#54FA97" d="M261.292,161.924c7.489-0.102,10.546,5.422,8.089,11.172
		c-4.05,9.476-8.658,18.753-12.09,28.449c-15.227,43.021-17.32,86.83-6.931,131.25c0.189,0.809,0.487,1.6,0.614,2.416
		c0.723,4.699-1.498,8.262-5.643,9.113c-3.812,0.783-7.183-1.492-8.386-5.996c-4.488-16.798-6.591-33.93-7.102-51.289
		c-1.232-41.916,7.393-81.675,26.186-119.162C257.366,165.214,260.092,163.247,261.292,161.924"/>
	<path clip-path="url(#SVGID_2_)" fill="none" d="M261.292,161.924c7.489-0.102,10.546,5.422,8.089,11.172
		c-4.05,9.476-8.658,18.753-12.09,28.449c-15.227,43.021-17.32,86.83-6.931,131.25c0.189,0.809,0.487,1.6,0.614,2.416
		c0.723,4.699-1.498,8.262-5.643,9.113c-3.812,0.783-7.183-1.492-8.386-5.996c-4.488-16.798-6.591-33.93-7.102-51.289
		c-1.232-41.916,7.393-81.675,26.186-119.162C257.366,165.214,260.092,163.247,261.292,161.924z"/>
	<path clip-path="url(#SVGID_2_)" fill="#54FA97" d="M581.475,160.589c-0.078,7.079-5.53,10.5-10.3,8.113
		c-1.609-0.807-2.992-2.08-4.458-3.168c-44.955-33.388-93.455-38.959-145.269-18.509c-0.927,0.365-1.798,0.879-2.733,1.215
		c-4.523,1.631-8.325,0.156-9.969-3.83c-1.531-3.714-0.147-7.785,4.209-9.329c11.26-3.988,22.463-8.678,34.106-10.938
		c47.391-9.199,90.459,1.381,128.972,30.405C578.502,156.41,580.261,159.215,581.475,160.589"/>
	<path clip-path="url(#SVGID_2_)" fill="none" d="M581.475,160.589c-0.078,7.079-5.53,10.5-10.3,8.113
		c-1.609-0.807-2.992-2.08-4.458-3.168c-44.955-33.388-93.455-38.959-145.269-18.509c-0.927,0.365-1.798,0.879-2.733,1.215
		c-4.523,1.631-8.325,0.156-9.969-3.83c-1.531-3.714-0.147-7.785,4.209-9.329c11.26-3.988,22.463-8.678,34.106-10.938
		c47.391-9.199,90.459,1.381,128.972,30.405C578.502,156.41,580.261,159.215,581.475,160.589z"/>
	<path clip-path="url(#SVGID_2_)" fill="#54FA97" d="M549.21,373.377c-6.816,54.6-25.583,104.73-56.352,150.359
		c-2.913,4.321-7.062,5.342-10.656,2.905c-3.777-2.561-4.242-6.612-1.037-11.364c23.14-34.302,39.451-71.562,48.254-112.011
		c2.261-10.387,3.777-20.94,5.446-31.448c0.942-5.941,3.676-8.832,8.411-8.236C547.688,364.137,549.665,367.424,549.21,373.377"/>
	<path clip-path="url(#SVGID_2_)" fill="none" d="M549.21,373.377c-6.816,54.6-25.583,104.73-56.352,150.359
		c-2.913,4.321-7.062,5.342-10.656,2.905c-3.777-2.561-4.242-6.612-1.037-11.364c23.14-34.302,39.451-71.562,48.254-112.011
		c2.261-10.387,3.777-20.94,5.446-31.448c0.942-5.941,3.676-8.832,8.411-8.236C547.688,364.137,549.665,367.424,549.21,373.377z"/>
	<path clip-path="url(#SVGID_2_)" fill="#54FA97" d="M672.081,334.191c0.354,38.641-4.693,76.637-14.239,114.055
		c-0.206,0.807-0.456,1.602-0.713,2.393c-1.469,4.521-5.151,6.859-9.012,5.729c-3.979-1.168-5.957-4.896-4.9-9.58
		c1.977-8.754,4.244-17.447,6.043-26.236c7.547-36.882,10.28-74.121,8.006-111.712c-0.069-1.163-0.188-2.331-0.15-3.493
		c0.144-4.405,2.961-7.591,6.929-7.633c4.349-0.047,6.926,2.371,7.434,6.538c0.482,3.954,0.522,7.972,0.581,11.963
		C672.146,322.205,672.081,328.197,672.081,334.191"/>
	<path clip-path="url(#SVGID_2_)" fill="none" d="M672.081,334.191c0.354,38.641-4.693,76.637-14.239,114.055
		c-0.206,0.807-0.456,1.602-0.713,2.393c-1.469,4.521-5.151,6.859-9.012,5.729c-3.979-1.168-5.957-4.896-4.9-9.58
		c1.977-8.754,4.244-17.447,6.043-26.236c7.547-36.882,10.28-74.121,8.006-111.712c-0.069-1.163-0.188-2.331-0.15-3.493
		c0.144-4.405,2.961-7.591,6.929-7.633c4.349-0.047,6.926,2.371,7.434,6.538c0.482,3.954,0.522,7.972,0.581,11.963
		C672.146,322.205,672.081,328.197,672.081,334.191z"/>
	<path clip-path="url(#SVGID_2_)" fill="#54FA97" d="M310.04,330.84c-1.099,30.742-11.479,55.357-32.81,75.014
		c-1.843,1.697-4.513,3.355-6.838,3.412c-2.026,0.052-5.027-1.733-5.92-3.539c-0.984-1.983-0.441-5.021,0.192-7.399
		c0.368-1.382,2.193-2.394,3.406-3.525c20.154-18.824,29.508-41.922,26.914-69.461c-0.996-10.569-3-21.043-4.438-31.575
		c-0.357-2.629-0.604-5.341-0.367-7.966c0.36-4,2.857-6.434,6.875-6.572c3.729-0.129,6.638,1.77,7.154,5.607
		C306.354,300.783,308.274,316.762,310.04,330.84"/>
	<path clip-path="url(#SVGID_2_)" fill="none" d="M310.04,330.84c-1.099,30.742-11.479,55.357-32.81,75.014
		c-1.843,1.697-4.513,3.355-6.838,3.412c-2.026,0.052-5.027-1.733-5.92-3.539c-0.984-1.983-0.441-5.021,0.192-7.399
		c0.368-1.382,2.193-2.394,3.406-3.525c20.154-18.824,29.508-41.922,26.914-69.461c-0.996-10.569-3-21.043-4.438-31.575
		c-0.357-2.629-0.604-5.341-0.367-7.966c0.36-4,2.857-6.434,6.875-6.572c3.729-0.129,6.638,1.77,7.154,5.607
		C306.354,300.783,308.274,316.762,310.04,330.84z"/>
	<path clip-path="url(#SVGID_2_)" fill="#54FA97" d="M445.033,419.363c-0.947,2.992-1.342,4.605-1.955,6.129
		c-12.053,29.957-29.298,56.578-51.547,79.959c-4.378,4.602-9.424,4.967-12.338,0.838c-2.795-3.963-1.152-7.217,1.639-10.705
		c10.264-12.826,21.137-25.297,30.061-39.02c7.638-11.744,13.008-24.978,19.193-37.644c1.933-3.959,4.736-6.539,8.949-5.016
		C441.517,414.805,443.281,417.691,445.033,419.363"/>
	<path clip-path="url(#SVGID_2_)" fill="none" d="M445.033,419.363c-0.947,2.992-1.342,4.605-1.955,6.129
		c-12.053,29.957-29.298,56.578-51.547,79.959c-4.378,4.602-9.424,4.967-12.338,0.838c-2.795-3.963-1.152-7.217,1.639-10.705
		c10.264-12.826,21.137-25.297,30.061-39.02c7.638-11.744,13.008-24.978,19.193-37.644c1.933-3.959,4.736-6.539,8.949-5.016
		C441.517,414.805,443.281,417.691,445.033,419.363z"/>
	<path clip-path="url(#SVGID_2_)" fill="#54FA97" d="M307.17,458.113c-2.16-1.695-4.881-2.811-5.669-4.724
		c-0.87-2.108-0.233-5.005,0.284-7.444c0.229-1.078,1.731-1.935,2.741-2.789c18.128-15.351,31.724-33.978,40.745-55.969
		c0.849-2.07,2.119-4.887,3.83-5.462c2.473-0.832,5.996-0.786,8.223,0.435c3.257,1.785,3.314,5.356,1.936,8.854
		c-5.404,13.72-12.328,26.661-21.701,37.996c-7.291,8.82-15.584,16.824-23.617,25.008
		C312.301,455.689,309.83,456.545,307.17,458.113"/>
	<path clip-path="url(#SVGID_2_)" fill="none" d="M307.17,458.113c-2.16-1.695-4.881-2.811-5.669-4.724
		c-0.87-2.108-0.233-5.005,0.284-7.444c0.229-1.078,1.731-1.935,2.741-2.789c18.128-15.351,31.724-33.978,40.745-55.969
		c0.849-2.07,2.119-4.887,3.83-5.462c2.473-0.832,5.996-0.786,8.223,0.435c3.257,1.785,3.314,5.356,1.936,8.854
		c-5.404,13.72-12.328,26.661-21.701,37.996c-7.291,8.82-15.584,16.824-23.617,25.008
		C312.301,455.689,309.83,456.545,307.17,458.113z"/>
	<path clip-path="url(#SVGID_2_)" fill="#54FA97" d="M598.86,434.416c-0.343,1.453-0.633,2.918-1.033,4.355
		c-6.438,23.088-14.812,45.45-25.112,67.096c-1.487,3.125-3.213,5.84-7.191,5.979c-5.931,0.205-8.895-5.174-6.397-11.264
		c6.542-15.969,13.127-31.924,19.337-48.021c2.502-6.485,3.992-13.354,6.088-20.006c1.266-4.014,4.283-6.479,8.312-5.073
		c2.655,0.928,4.634,3.797,6.914,5.797C599.47,433.658,599.165,434.037,598.86,434.416"/>
	<path clip-path="url(#SVGID_2_)" fill="none" d="M598.86,434.416c-0.343,1.453-0.633,2.918-1.033,4.355
		c-6.438,23.088-14.812,45.45-25.112,67.096c-1.487,3.125-3.213,5.84-7.191,5.979c-5.931,0.205-8.895-5.174-6.397-11.264
		c6.542-15.969,13.127-31.924,19.337-48.021c2.502-6.485,3.992-13.354,6.088-20.006c1.266-4.014,4.283-6.479,8.312-5.073
		c2.655,0.928,4.634,3.797,6.914,5.797C599.47,433.658,599.165,434.037,598.86,434.416z"/>
</g>
</svg>
